<?xml version="1.0" standalone="no"?> <!DOCTYPE svg PUBLIC "-//W3C//DTD SVG 1.0//EN" "http://www.w3.org/TR/2001/REC-SVG-20010904/DTD/svg10.dtd" > <svg xmlns="http://www.w3.org/2000/svg" width="100%" height="100%">
<defs >
<font id="cooperblackstd" horiz-adv-x="1294" ><font-face
    font-family="Cooper Std Black"
    units-per-em="2048"
    panose-1="2 8 9 3 4 3 11 2 4 4"
    ascent="1436"
    descent="-612"
    alphabetic="0" />
<missing-glyph horiz-adv-x="1024" d="M0 0V1434H1024V0H0ZM512 809L860 1331H164L512 809ZM573 717L922 195V1239L573 717ZM164 102H860L512 625L164 102ZM102 1239V195L451 717L102 1239Z" />
<glyph unicode=" " glyph-name="space" horiz-adv-x="645" />
<glyph unicode="!" glyph-name="exclam" horiz-adv-x="663" d="M559 293T559 199T493 38T332 -29T171 38T104 199T171 359T332 426T492 360ZM578 1151Q578 1060 548 954T473 758Q449 707 407 647T332 586Q309 586 277 623T224 694T190 758Q145 847 116 953T86
1151Q86 1210 100 1264T143 1364T220 1437T332 1464T443 1437T520 1365T563 1265T578 1151Z" />
<glyph unicode="&quot;" glyph-name="quotedbl" horiz-adv-x="1202" d="M322 1464Q379 1464 422 1440T491 1374T530 1284T543 1182Q543 1096 518 999T451 825Q450 823 436 799T410 758T383 720T351 686T322 674Q276 674 195 825Q152 902 126 999T100 1182Q100
1255 122 1316T196 1421T322 1464ZM881 1464Q938 1464 981 1440T1050 1374T1089 1284T1102 1182Q1102 1096 1077 999T1010 825Q1009 823 995 799T969 758T942 720T910 686T881 674Q835 674 754 825Q711 902 685 999T659 1182Q659 1255 681 1316T755 1421T881 1464Z"
/>
<glyph unicode="#" glyph-name="numbersign" horiz-adv-x="1290" d="M831 336L793 39Q785 0 748 0H670Q654 0 644 11T637 39L678 336Q679 352 670 363T647 375H573Q558 375 546 363T532 336L492 39Q484 0 446 0H369Q353 0 343 11T336 39L379 336Q380 352 371 363T348
375H256Q239 375 228 386T217 414V492Q217 509 228 519T256 530H371Q386 530 398 542T414 569L424 645Q425 662 416 673T393 684H301Q284 684 273 695T262 723V801Q262 818 273 829T301 840H416Q431 840 443 851T459 879L496 1153Q502 1192 541 1192H618Q634 1192
644 1181T651 1153L610 877Q607 862 616 851T641 840H713Q728 840 740 851T756 879L795 1153Q801 1192 840 1192H918Q933 1192 943 1181T950 1153L911 877Q908 862 917 851T942 840H1034Q1051 840 1062 829T1073 801V723Q1073 706 1062 695T1034 684H920Q904 684
893 673T879 645L868 567Q865 552 874 541T899 530H991Q1008 530 1019 520T1030 492V414Q1030 397 1019 386T991 375H872Q857 375 845 363T831 336ZM600 530H670Q685 530 697 542T713 569L723 645Q724 662 715 673T692 684H621Q605 684 594 673T580 645L569 567Q566
552 575 541T600 530Z" />
<glyph unicode="$" glyph-name="dollar" horiz-adv-x="1290" d="M995 1217Q1032 1217 1078 1173T1158 1061T1192 932Q1192 879 1163 844T1083 809Q1053 809 1021 830T956 882T889 942T805 994T705 1016Q657 1016 626 992T594 922Q594 891 615 867T673 827T756
797T854 766T958 730T1057 679T1140 608T1197 507T1219 371Q1219 294 1188 225T1107 109T998 25T882 -30T778 -53Q769 -54 762 -55T751 -58T743 -64T738 -71T736 -81T735 -91T735 -106T735 -123Q735 -144 735 -156T732 -180T729 -198T719 -209T707 -216T688 -219T663
-221T629 -221Q618 -221 601 -221T576 -222T557 -221T541 -218T529 -212T520 -201T515 -185T511 -162T510 -131Q510 -126 511 -112T511 -91T508 -75T498 -61T479 -55Q407 -46 315 -21T182 33Q134 69 102 172T70 350Q70 390 88 418T143 446Q176 446 202 425T247
372T292 303T352 234T441 181T573 160Q601 160 632 167T693 195T723 248Q723 273 718 286T686 318T616 352T483 401Q408 428 344 464T224 550T135 669T102 817Q102 967 207 1081T463 1225Q472 1227 478 1228T490 1231T499 1235T504 1240T508 1246T509 1255T510
1266T510 1280T510 1296Q510 1324 510 1338T515 1365T523 1383T541 1391T566 1395T605 1395Q612 1395 616 1395Q627 1395 645 1395T670 1396T689 1395T706 1392T717 1386T726 1375T731 1358T734 1336T735 1305Q735 1300 734 1287T733 1267T736 1250T745 1235T762
1227Q774 1225 835 1211T903 1196Q914 1196 944 1206T995 1217Z" />
<glyph unicode="%" glyph-name="percent" horiz-adv-x="1744" d="M1716 375Q1716 263 1650 174T1483 38T1272 -8Q1111 -8 999 82T887 330Q887 423 925 498T1027 622T1172 695T1343 721Q1434 721 1520 675T1661 547T1716 375ZM1391 256Q1391 288 1384 334T1364
432T1323 521T1262 557Q1233 557 1217 533T1200 479Q1200 460 1206 416T1226 315T1268 216T1331 174Q1363 174 1377 198T1391 256ZM858 1110Q858 1026 819 953T717 831T575 755T414 727Q311 727 225 765T84 882T29 1065Q29 1159 67 1234T169 1357T314 1430T485
1456Q576 1456 662 1410T803 1283T858 1110ZM532 991Q532 1023 526 1069T505 1167T465 1256T403 1292Q374 1292 358 1268T342 1214Q342 1196 348 1152T368 1051T410 951T473 909Q532 909 532 991ZM1108 961L719 297Q682 234 650 171T604 80T575 28T542 -3T498 -10Q461
-10 419 2T377 43Q377 61 383 75T410 121T460 193T548 330T676 545L1153 1374Q1178 1425 1202 1444T1278 1464Q1374 1464 1374 1417Q1374 1399 1367 1381T1339 1330T1292 1257T1214 1136T1108 961Z" />
<glyph unicode="&amp;" glyph-name="ampersand" horiz-adv-x="1869" d="M965 440Q922 440 897 489T872 586Q872 670 903 737T983 846T1093 921T1213 977T1322 1022T1403 1071T1434 1133Q1434 1155 1420 1171T1384 1188Q1376 1188 1360 1181T1331 1174Q1314 1174
1301 1187T1288 1219Q1288 1259 1318 1292T1392 1344T1481 1373T1561 1384Q1685 1384 1777 1313T1870 1120Q1870 1059 1848 1006T1791 917T1718 850T1644 800T1588 762T1565 729Q1565 713 1581 699T1619 668T1664 631T1702 571T1718 483Q1718 416 1684 346T1578
208T1408 88T1168 3T866 -29Q709 -29 573 3T339 90T170 219T64 377T29 549Q29 621 52 678T108 769T175 825T231 863T254 889Q254 897 236 932T199 1016T180 1106Q180 1215 254 1304T445 1442T690 1491Q739 1491 796 1481T912 1449T1011 1387T1051 1292Q1051 1249
1015 1212T934 1174Q909 1174 878 1195T808 1238T727 1260Q671 1260 637 1218T602 1118Q602 1071 618 1043T660 1007T713 993T767 984T808 962T825 911Q825 844 801 809T741 765T672 750T613 720T588 645Q588 543 644 445T795 284T993 221Q1064 221 1134 249T1255
335T1305 469Q1305 523 1265 558T1167 594Q1131 594 1103 578T1059 540T1028 495T999 456T965 440Z" />
<glyph unicode="&apos;" glyph-name="quotesingle" horiz-adv-x="645" d="M322 1464Q379 1464 422 1440T491 1374T530 1284T543 1182Q543 1096 518 999T451 825Q450 823 436 799T410 758T383 720T351 686T322 674Q276 674 195 825Q152 902 126 999T100 1182Q100
1255 122 1316T196 1421T322 1464Z" />
<glyph unicode="(" glyph-name="parenleft" horiz-adv-x="1073" d="M143 587T143 717T167 975T246 1226T377 1441T569 1590T823 1647Q896 1647 944 1638T1015 1612T1045 1579T1053 1540Q1053 1498 1034 1468T975 1438Q931 1438 898 1443T860 1448Q810 1448 769
1416T700 1334T651 1215T619 1078T600 938T590 813T588 717T590 621T599 497T618 356T651 220T699 100T768 18T860 -14Q864 -14 897 -9T975 -4Q1014 -4 1033 -34T1053 -106Q1053 -129 1046 -145T1016 -178T945 -204T823 -213Q685 -213 570 -157T377 -7T246 208T168
458Z" />
<glyph unicode=")" glyph-name="parenright" horiz-adv-x="1073" d="M930 847T930 717T906 459T827 208T696 -7T504 -156T250 -213Q177 -213 129 -204T58 -179T28 -146T20 -106Q20 -64 39 -34T98 -4Q142 -4 176 -9T213 -14Q263 -14 304 18T373 100T422 219T454
356T473 496T483 621T485 717T483 813T474 937T455 1078T422 1214T374 1334T305 1416T213 1448Q210 1448 176 1443T98 1438Q59 1438 40 1468T20 1540Q20 1562 27 1578T57 1612T128 1638T250 1647Q388 1647 503 1591T696 1441T827 1226T905 976Z" />
<glyph unicode="*" glyph-name="asterisk" horiz-adv-x="1552" d="M932 1214L1014 1243Q1020 1245 1037 1251T1069 1260T1094 1264Q1118 1264 1136 1240T1163 1183T1174 1128T1178 1100Q1178 1068 1143 1050T1064 1027T986 1013T950 985Q950 979 982 940T1045
853T1077 782Q1077 756 1013 709T922 662Q904 662 880 694T837 765T796 836T762 868Q751 868 714 822T634 729T569 682Q543 682 488 730T432 809Q432 835 455 867T507 925T558 974T582 1010Q582 1025 550 1036T479 1056T408 1085T375 1137Q375 1170 400 1231T457
1292Q493 1292 568 1256T653 1219Q674 1219 674 1272Q674 1281 673 1294T672 1309V1395Q673 1434 695 1449T758 1464Q782 1464 792 1464T823 1460T854 1451T872 1431T881 1397Q881 1376 874 1315T866 1223Q866 1215 871 1209T885 1202Q889 1202 898 1204T919 1210T932
1214Z" />
<glyph unicode="+" glyph-name="plus" horiz-adv-x="1290" d="M1008 406H868Q861 406 851 406T834 406T821 406T809 406T799 406T790 405T784 403T778 401T774 397T771 393T768 387T766 380T765 371T764 361T764 348T764 335T764 319T764 301V162Q764 90 759 73Q746
37 685 31Q668 29 645 29Q601 29 576 34T540 58T528 91T526 143Q526 156 526 162V301Q526 313 526 331T527 357T526 374T524 389T518 397Q516 399 514 400T508 403T501 404T492 405T482 406T470 406T456 406T440 406T422 406H283Q276 406 263 406Q226 406 211 407T178
420T156 455T150 524T155 593T178 629T211 641T264 643Q277 643 283 643H422Q429 643 439 643T455 643T469 643T481 643T491 643T500 645T507 647T513 649T518 653T521 657T523 662T524 669T525 678T526 688T526 700T526 714T526 730T526 748V887Q526 959 531 976Q544
1012 605 1018Q622 1020 645 1020Q689 1020 714 1015T750 991T762 958T764 906Q764 893 764 887V748Q764 666 774 653Q776 651 778 650T783 647T790 645T798 644T808 643T821 643T834 643T850 643T868 643H1008Q1080 643 1097 638Q1133 625 1139 564Q1141 547 1141
524Q1141 480 1136 456T1113 420T1080 408T1028 406Q1015 406 1008 406Z" />
<glyph unicode="," glyph-name="comma" horiz-adv-x="645" d="M291 -379Q256 -379 222 -356T188 -299Q188 -286 214 -243T265 -147T291 -59Q291 -39 275 -24T233 0T179 27T124 67T83 132T66 233Q66 333 136 407T305 481Q394 481 458 428T550 299T578 137Q578 68
556 -20T496 -189T404 -324T291 -379Z" />
<glyph unicode="-" glyph-name="hyphen" horiz-adv-x="612" d="M530 418Q509 378 486 361T420 344Q396 344 345 352T270 360Q191 360 144 358T81 354T61 352Q36 352 18 369T0 414Q0 448 31 540T82 668Q103 708 126 724T193 741Q218 741 268 733T342 725Q403 725
446 726T506 729T534 731T551 733Q576 733 594 716T612 672Q612 638 581 546T530 418Z" />
<glyph unicode="." glyph-name="period" horiz-adv-x="645" d="M569 322T569 219T497 44T322 -29T147 43T74 219T146 394T322 467T497 395Z" />
<glyph unicode="/" glyph-name="slash" horiz-adv-x="1015" d="M799 932L289 -115Q275 -144 260 -178T237 -229T219 -263T198 -287T172 -298T133 -303Q108 -303 83 -301T27 -291T-23 -268T-43 -227Q-43 -206 -16 -153T71 5T174 201L684 1247Q698 1276 713 1311T736
1362T754 1396T775 1420T801 1431T840 1436Q865 1436 890 1434T946 1424T996 1400T1016 1360Q1016 1339 988 1286T902 1127T799 932Z" />
<glyph unicode="0" glyph-name="zero" horiz-adv-x="1290" d="M53 600Q53 730 92 841T203 1033T383 1160T625 1206Q794 1206 935 1120T1157 888T1237 575Q1237 458 1201 358T1104 188T967 68T806 -5T641 -29Q469 -29 333 57T125 287T53 600ZM778 444Q778 491 770
559T745 708T693 845T610 901Q512 901 512 737Q512 694 520 625T546 474T600 334T682 276Q720 276 743 307T772 372T778 444Z" />
<glyph unicode="1" glyph-name="one" horiz-adv-x="1290" d="M395 481V760Q395 835 377 862T287 889Q273 889 248 887T211 885Q176 885 153 902T129 952Q129 1019 258 1079T562 1173T893 1206Q925 1206 947 1204T1000 1193T1046 1165T1063 1114Q1063 1086 1048
1071T1010 1047T966 1025T927 979T909 893Q905 675 905 647Q905 393 924 297Q934 247 965 223T1034 195T1108 189T1168 170T1192 113Q1192 87 1182 69T1152 39T1115 21T1069 8Q993 -8 868 -18T655 -29Q619 -29 567 -27T425 -16T264 8T138 53T84 123Q84 159 111
182T176 205Q194 205 230 199T283 193Q324 193 347 215T382 301T395 481Z" />
<glyph unicode="2" glyph-name="two" horiz-adv-x="1290" d="M1151 422Q1178 422 1197 407T1225 367T1239 318T1243 268Q1243 187 1219 115T1159 -1T1085 -72T1014 -98Q983 -98 968 -88T947 -64T932 -35T894 -10T813 0H137Q62 0 38 16Q18 29 18 53Q18 72 24 83T59
125T168 231Q218 278 269 332T381 461T481 608T520 731Q520 785 490 816T406 848Q371 848 342 836T293 806T253 771T211 742T162 729Q115 729 72 766T29 848Q29 934 136 1019T391 1155T666 1206Q791 1206 887 1179T1041 1106T1126 1004T1155 885Q1155 812 1120
740T1034 614T933 514T847 431T811 371Q811 338 839 319T901 299Q950 299 991 318T1055 360T1103 403T1151 422Z" />
<glyph unicode="3" glyph-name="three" horiz-adv-x="1290" d="M422 393Q377 393 326 383T274 373Q241 373 215 434T188 535Q188 554 208 570T259 597T325 626T391 664T442 720T463 801Q463 855 414 896T303 938Q260 938 216 920T141 884T96 866Q66 866 45 906T23
981Q23 1034 103 1087T307 1173T549 1206Q604 1206 664 1200T795 1174T921 1127T1012 1049T1049 938Q1049 889 1033 849T995 784T950 740T911 706T895 678Q895 664 914 654T963 636T1030 617T1103 584T1170 531T1220 444T1239 315Q1239 235 1211 160T1120 16T968
-104T747 -186T459 -217Q406 -217 341 -211T192 -189T52 -137T-4 -49Q-4 -1 29 30T111 61Q130 61 211 43T365 25Q432 25 493 47T597 115T639 221Q639 304 575 348T422 393Z" />
<glyph unicode="4" glyph-name="four" horiz-adv-x="1290" d="M449 360H512Q516 360 524 360Q563 360 579 360T614 365T638 375T649 398T655 434T655 489Q655 505 656 533T659 586T660 640T659 693T651 735T634 765T606 774Q556 769 514 711Q506 700 446 629T342
497T299 406Q299 398 303 391T315 380T331 371T352 365T374 362T397 361T417 360T436 360T449 360ZM1100 1149V471Q1100 418 1105 408Q1115 389 1159 389Q1213 389 1225 376T1237 305V141Q1237 121 1237 114T1234 93T1226 73T1210 61T1182 53Q1139 49 1132 36T1124
-42Q1124 -59 1124 -68Q1124 -81 1124 -103T1125 -134T1123 -157T1116 -177T1101 -188T1076 -197T1038 -199H729Q712 -199 700 -199T679 -195T663 -191T653 -183T647 -172T644 -155T642 -135T643 -108T643 -76Q643 -67 643 -52Q643 -13 642 2T632 33T602 53T543
57H184Q96 57 61 83T25 193Q25 305 59 373T233 610L707 1155Q845 1286 1004 1286Q1031 1286 1050 1278T1078 1260T1093 1229T1099 1193T1100 1149Z" />
<glyph unicode="5" glyph-name="five" horiz-adv-x="1290" d="M1016 823H586Q565 823 557 823T530 820T504 810T489 792T481 760Q481 749 484 741T494 728T508 720T527 714T546 711T567 709T586 707Q738 690 855 652T1040 569T1151 469T1208 366T1223 272Q1223
174 1168 84T1017 -74T779 -182T477 -223Q383 -223 311 -213T197 -186T129 -147T93 -103T84 -57Q84 -24 98 17T141 59Q144 59 181 49T273 28T373 18Q421 18 463 30T538 76T571 158Q571 196 550 228T497 281T423 319T346 345T274 360Q267 361 241 364T196 370T151
380T109 397T80 423T68 461Q68 528 114 679T205 950Q228 1013 244 1052T276 1120T303 1162T332 1183T362 1191T403 1192Q413 1192 418 1192H1116Q1177 1192 1194 1178T1212 1102Q1212 1062 1202 1018T1171 928T1110 853T1016 823Z" />
<glyph unicode="6" glyph-name="six" horiz-adv-x="1290" d="M1270 535Q1270 450 1244 368T1165 215T1042 89T874 3T668 -29Q483 -29 339 51T116 271T37 584Q37 702 93 846T225 1102T382 1291T510 1368Q553 1374 677 1331T801 1247Q801 1240 798 1231T787 1212T774
1195T760 1178T748 1165Q604 1006 604 920Q604 905 613 893T637 881Q645 881 729 908T879 936Q986 936 1076 881T1218 734T1270 535ZM819 350Q819 402 800 466T736 585T635 639Q585 639 561 602T537 512Q537 438 596 347T723 256Q766 256 792 281T819 350Z" />
<glyph unicode="7" glyph-name="seven" horiz-adv-x="1290" d="M487 1192H1114Q1140 1192 1157 1190T1195 1182T1228 1158T1239 1114Q1239 1092 1223 1042L811 -203Q801 -235 795 -246T765 -264T692 -272Q629 -272 574 -263T483 -241T422 -212T385 -182T373 -158Q373
-142 393 -109L762 596Q763 598 776 625T796 665T810 700T817 735Q817 751 808 763T779 783T743 795T696 801T651 803T607 804T575 803Q492 803 435 796T350 778T307 754T285 726T271 701T245 683T193 676Q149 676 118 697T70 753T46 825T39 903Q39 1047 94 1148T223
1249Q250 1249 272 1240T311 1221T373 1201T487 1192Z" />
<glyph unicode="8" glyph-name="eight" horiz-adv-x="1290" d="M1247 997Q1247 938 1219 891T1158 820T1097 776T1069 743Q1069 737 1075 729T1087 716T1105 704T1118 694Q1186 648 1227 572T1268 414Q1268 361 1250 304T1188 187T1079 79T912 2T684 -29Q628 -29
569 -23T444 -3T319 34T205 89T110 164T47 262T23 385Q23 438 40 481T83 551T134 598T177 633T195 659Q195 669 173 693T125 745T77 825T55 938Q55 1030 102 1106T230 1230T410 1305T621 1331Q677 1331 738 1325T873 1306T1011 1267T1129 1206T1215 1117T1247 997ZM676
1137Q635 1137 601 1116T567 1057Q567 1003 647 943T782 883Q815 883 834 923T854 1001Q854 1068 800 1102T676 1137ZM629 184Q688 184 730 209T772 289Q772 307 768 322T755 350T737 372T712 391T687 407T658 422T631 436Q488 512 426 512Q398 512 386 487T373
430Q373 331 451 258T629 184Z" />
<glyph unicode="9" glyph-name="nine" horiz-adv-x="1290" d="M1012 78Q983 39 939 -13T835 -126T718 -228T621 -270Q569 -270 462 -219T354 -127Q354 -113 369 -99T399 -76Q472 -38 537 52T602 205Q602 244 559 244Q542 244 510 241T461 238Q375 238 302 266T180
343T95 455T44 588T27 729Q27 824 62 904T157 1039T295 1132T459 1188T633 1206Q727 1206 815 1188T983 1131T1122 1034T1216 894T1251 709Q1251 402 1012 78ZM793 623Q793 658 783 704T753 796T699 873T623 905Q575 905 547 864T518 772Q518 732 529 688T561 602T617
535T696 508Q741 508 767 542T793 623Z" />
<glyph unicode=":" glyph-name="colon" horiz-adv-x="645" d="M569 930T569 827T497 652T322 580T147 652T74 827T146 1002T322 1075Q425 1075 497 1003ZM569 322T569 219T497 44T322 -29T147 43T74 219T146 394T322 467T497 395Z" />
<glyph unicode=";" glyph-name="semicolon" horiz-adv-x="645" d="M578 137Q578 68 556 -20T496 -189T404 -324T291 -379Q256 -379 222 -356T188 -299Q188 -286 214 -243T265 -147T291 -59Q291 -39 275 -24T233 0T179 27T124 67T83 132T66 233Q66 333 136 407T305
481Q394 481 458 428T550 299T578 137ZM561 930T561 827T489 652T313 580T138 652T66 827T138 1002T313 1075T488 1003Z" />
<glyph unicode="&lt;" glyph-name="less" horiz-adv-x="1290" d="M526 524L1063 291Q1110 271 1125 252T1141 195V129Q1141 96 1131 63T1100 29Q1090 29 1079 31T1061 36T1041 43T1022 51L184 416Q177 419 172 424T163 437T157 452T154 471T152 488T151 507T150
524T150 540T151 560T153 577T157 596T162 611T171 624T184 633L1022 997Q1078 1020 1100 1020Q1120 1020 1130 986T1141 920V856Q1141 818 1126 798T1063 758L526 524Z" />
<glyph unicode="=" glyph-name="equal" horiz-adv-x="1290" d="M1008 606H283Q210 606 194 611Q158 624 152 685Q150 702 150 725Q150 769 155 794T178 830T211 842T264 844Q277 844 283 844H1008Q1080 844 1097 839Q1133 826 1139 765Q1141 748 1141 725Q1141
681 1136 656T1112 620T1079 608T1027 606Q1014 606 1008 606ZM1008 205H283Q210 205 194 210Q158 223 152 284Q150 301 150 324Q150 349 152 368T158 400T169 421T185 433T206 440T232 442T263 442Q276 442 283 442H1008Q1015 442 1028 442Q1064 442 1079 441T1112
428T1135 393T1141 324T1136 255T1112 219T1079 207T1027 205Q1014 205 1008 205Z" />
<glyph unicode="&gt;" glyph-name="greater" horiz-adv-x="1290" d="M227 291L764 524L227 758Q180 777 165 797T150 854V920Q150 953 160 986T190 1020Q214 1020 268 997L1106 633Q1113 630 1118 625T1127 611T1133 596T1137 577T1139 560T1140 541T1141 524T1141
508T1140 489T1138 471T1134 453T1128 438T1119 424T1106 416L268 51Q211 29 190 29Q170 29 160 62T150 129V193Q150 231 165 251T227 291Z" />
<glyph unicode="?" glyph-name="question" horiz-adv-x="1036" d="M399 1145Q388 1043 329 985T168 926Q103 926 59 968T14 1075Q14 1142 47 1210T141 1335T298 1428T510 1464Q592 1464 679 1438T842 1364T967 1241T1016 1079Q1016 985 958 914T786 799Q737 780
705 754T662 702T638 650T614 605T574 573T498 561Q435 561 398 597T360 696Q360 744 378 791T422 877T475 956T519 1043T537 1139Q537 1178 519 1210T465 1243Q449 1243 437 1237T419 1222T408 1198T402 1173T399 1145ZM709 293T709 199T642 38T481 -29T321 38T254
199T320 359T481 426T642 360Z" />
<glyph unicode="@" glyph-name="at" horiz-adv-x="1552" d="M973 1016Q980 1016 1044 1046T1159 1077Q1191 1077 1202 1065T1214 1022Q1214 981 1176 829Q1166 792 1159 761T1140 667T1130 566T1155 528Q1164 528 1180 536T1221 568T1269 625T1312 716T1341 844Q1348
901 1337 963T1290 1089T1198 1203T1048 1286T838 1319Q720 1319 609 1275T411 1152T268 961T203 717Q193 580 235 466T359 276T553 159T797 117Q872 117 945 139T1070 194T1163 257T1231 311T1266 334Q1289 334 1317 302T1343 250Q1342 242 1313 213T1226 143T1099
64T934 -2T745 -29Q589 -29 454 25T224 174T82 406T53 702T141 1000T318 1242T568 1404T870 1464Q965 1464 1059 1440T1238 1364T1384 1244T1480 1077T1503 868Q1492 738 1438 632T1299 456T1108 350T883 313Q838 313 819 332T800 375T798 418T780 438Q769 438
743 417T688 372T609 326T508 305Q419 305 373 370T336 545Q345 650 394 750T511 921T657 1034T803 1077Q844 1077 877 1062T933 1031T973 1016ZM707 539Q733 539 778 596T862 732T905 868Q907 887 902 902T881 918Q862 918 830 890T765 817T707 713T676 596Q671
539 707 539Z" />
<glyph unicode="A" glyph-name="A" horiz-adv-x="1779" d="M694 592H848Q850 592 856 592T866 592T878 592T890 593T902 595T913 598T922 602T928 609T930 618Q930 651 854 784Q853 786 846 800T835 820T823 840T808 861T792 876T774 889T756 893Q744 893 733
884T713 861T695 828T681 796T670 766L664 748Q621 638 621 621Q621 614 623 609T631 600T642 595T656 593T670 592T683 592T694 592ZM289 459L418 739Q505 936 533 1027Q565 1137 565 1223Q565 1337 624 1403T813 1470Q864 1470 913 1449T997 1399T1070 1322T1131
1239T1184 1153Q1212 1106 1380 763T1602 299Q1620 256 1646 233T1694 203T1736 190T1768 169T1780 121Q1780 95 1769 74T1736 38T1690 12T1630 -5T1569 -16T1504 -21T1447 -22T1397 -23Q1390 -23 1386 -23Q1319 -23 1281 -23T1191 -21T1109 -16T1043 -6T988 9T951
32T926 64T918 106Q918 139 937 158T980 183T1022 202T1042 240T1038 279T1016 307T976 325T906 334T806 339T662 340Q624 340 603 339T557 333T520 316T500 285T492 236Q492 214 505 202T538 185T577 173T609 149T623 102Q623 -23 319 -23Q214 -23 147 -14T49
13T10 50T0 98Q0 131 19 150T62 177T119 200T170 240Q208 286 289 459Z" />
<glyph unicode="B" glyph-name="B" horiz-adv-x="1544" d="M1393 1114Q1393 1041 1364 973T1280 860Q1279 859 1271 853T1262 845T1256 837T1249 827T1245 817T1243 805T1244 795T1248 786T1253 780T1261 774T1268 769T1277 765T1286 760Q1321 746 1358 720T1432
656T1492 562T1516 446Q1516 382 1499 320T1441 198T1338 92T1182 18T967 -10Q865 -10 772 -4Q650 0 586 0Q513 0 375 -4Q270 -10 164 -10Q111 -10 70 19T29 98Q29 132 43 148T77 175T117 206T154 284T174 436L197 1026Q199 1089 192 1132T170 1198T138 1232T102
1251T68 1265T43 1290T33 1335Q33 1389 79 1419T180 1450Q214 1450 252 1449T336 1447T408 1444Q558 1436 635 1436Q684 1436 778 1444Q919 1450 922 1450Q1030 1450 1114 1430T1249 1378T1334 1300T1380 1210T1393 1114ZM684 1116V950Q684 874 691 857Q702 831
743 831Q829 831 862 883T895 1030Q895 1068 888 1102T866 1167T822 1218T752 1237Q740 1237 730 1235T713 1228T701 1219T692 1206T687 1192T685 1174T684 1156T684 1136T684 1116ZM684 553V451Q684 381 689 334T701 262T723 225T750 210T786 207Q944 207 944
393Q944 629 764 629Q720 629 703 610T684 553Z" />
<glyph unicode="C" glyph-name="C" horiz-adv-x="1548" d="M49 723Q49 876 117 1015T297 1251T553 1406T848 1464Q936 1464 1019 1439T1158 1389T1231 1364Q1255 1364 1281 1371T1323 1378Q1395 1378 1457 1280T1520 1022Q1520 931 1469 869T1329 807Q1287 807
1254 827T1197 879T1150 949T1098 1026T1033 1097T939 1149T807 1169Q751 1169 706 1145T636 1081T597 998T584 909Q584 795 614 694T700 515T841 393T1032 348Q1104 348 1162 362T1254 397T1313 439T1358 474T1395 489Q1436 489 1459 451T1483 369Q1483 322 1456
258T1382 142T1286 90Q1265 90 1220 72T1124 31T994 -10T831 -29Q673 -29 528 31T278 192T111 432T49 723Z" />
<glyph unicode="D" glyph-name="D" horiz-adv-x="1726" d="M197 389L213 1100Q214 1149 204 1181T176 1226T140 1249T103 1266T75 1291T63 1341Q63 1375 82 1398T132 1431T193 1446T254 1450H922Q1087 1450 1218 1410T1434 1303T1574 1142T1653 946T1677 729Q1677
612 1650 506T1565 305T1421 141T1212 31T936 -10Q806 -10 711 -4Q583 0 535 0Q476 0 360 -4Q274 -10 186 -10Q126 -10 78 20T29 106Q29 136 38 152T61 175T92 185T128 199T160 227T185 287T197 389ZM705 1114V350Q705 267 729 235T831 203Q906 203 962 233T1050
308T1102 419T1128 543T1135 672Q1135 810 1115 913T1062 1075T983 1169T893 1216T797 1227Q737 1227 721 1203T705 1114Z" />
<glyph unicode="E" glyph-name="E" horiz-adv-x="1486" d="M285 1436H874Q968 1436 1038 1442T1139 1456T1191 1470T1221 1477Q1262 1477 1295 1445T1347 1365T1376 1270T1386 1186Q1386 1126 1361 1082T1280 1038Q1248 1038 1227 1049T1194 1077T1170 1115T1137
1157T1085 1196T997 1224T860 1235Q814 1235 784 1233T729 1224T692 1207T670 1180T659 1140T655 1086T655 1015Q655 979 655 958Q655 925 655 908T662 874T673 853T697 842T732 837T786 836Q829 836 850 859T877 916T887 983T911 1039T971 1063Q1005 1063 1030
1038T1067 978T1087 895T1096 816T1098 752Q1098 710 1093 664T1076 558T1034 460T961 422Q932 422 916 438T897 478T888 529T872 581T833 621T754 637Q729 637 712 628T687 607T675 571T671 535T670 494Q670 317 689 269Q707 224 759 214Q786 209 905 209Q990
209 1053 225T1152 266T1212 323T1251 384T1280 440T1317 482T1374 498Q1420 498 1446 457T1473 367Q1473 298 1443 206T1366 45T1280 -23Q1274 -23 1262 -21T1228 -16T1190 -10Q1078 0 1018 0H176Q129 0 99 9T57 34T42 62T39 88Q39 119 53 135T89 159T132 181T171
231T193 328Q212 619 212 682T199 1034Q195 1108 181 1155T149 1218T109 1245T70 1259T41 1280T29 1331Q29 1357 38 1376T66 1406T102 1425T150 1434T196 1437T245 1437T285 1436Z" />
<glyph unicode="F" glyph-name="F" horiz-adv-x="1423" d="M209 553V838Q214 1045 203 1133Q196 1182 177 1211T137 1250T94 1268T59 1292T45 1339Q45 1393 94 1421T201 1450Q213 1450 453 1440T793 1430Q815 1430 1038 1440T1274 1450Q1333 1450 1385 1353T1438
1149Q1438 1091 1410 1050T1327 1008Q1299 1008 1278 1019T1242 1049T1211 1091T1168 1136T1106 1177T1008 1207T866 1219T762 1210Q714 1191 699 1107Q688 1046 688 932Q688 914 690 905T703 883T740 866T809 860Q853 860 876 879T907 926T922 982T949 1029T1010
1049Q1043 1049 1067 1025T1104 966T1124 886T1133 808T1135 745Q1135 715 1134 686T1128 614T1112 537T1086 470T1044 419T985 401Q955 401 939 418T920 461T911 517T894 573T853 616T770 633Q712 633 701 610T690 473Q690 431 690 406Q688 344 698 303T726 242T764
213T808 199T848 188T877 164T889 115Q889 77 877 60Q817 -23 410 -23Q289 -23 213 -15T97 12T43 54T29 113Q29 145 40 163T70 191T109 208T149 235T182 283Q209 356 209 553Z" />
<glyph unicode="G" glyph-name="G" horiz-adv-x="1708" d="M580 844Q580 723 606 623T674 459T767 351T866 289T956 270Q1010 270 1045 306T1081 397Q1081 444 1059 463T1006 484T942 488T888 514T866 590Q866 632 900 663T980 711T1090 736T1196 748T1280 750Q1390
750 1470 738T1590 708T1654 666T1683 623T1688 582Q1688 544 1660 517T1593 483Q1555 479 1544 468T1522 414Q1493 305 1427 219T1271 80T1077 -1T862 -29Q700 -29 552 26T293 177T115 416T49 725Q49 883 113 1022T287 1257T543 1408T854 1464Q933 1464 1004 1450T1121
1423T1186 1409Q1204 1409 1249 1424T1313 1440Q1358 1440 1398 1406T1462 1322T1501 1220T1516 1126Q1516 1044 1474 984T1354 924Q1313 924 1279 939T1218 980T1167 1035T1115 1096T1055 1152T976 1192T872 1208Q739 1208 660 1108T580 844Z" />
<glyph unicode="H" glyph-name="H" horiz-adv-x="1724" d="M1548 870V338Q1548 288 1560 263T1612 215Q1639 200 1649 194T1670 170T1681 129Q1681 108 1678 94T1654 55T1592 16T1471 -11T1274 -23Q922 -23 922 117Q920 148 927 166T946 192T974 208T1006 234T1035
282T1056 371T1065 516Q1065 557 1061 578T1041 609T1008 621T948 623Q942 623 938 623Q766 623 726 609Q688 596 680 556Q678 533 678 430Q678 352 691 305T723 241T760 213T792 184T805 129Q805 88 772 59T695 14T589 -10T489 -21T408 -23Q369 -23 331 -21T235
-11T134 12T61 56T29 125Q29 181 94 211Q136 231 147 243Q181 279 189 418Q195 506 195 668Q195 801 195 879T191 1020T185 1110T172 1159T155 1185T128 1199Q117 1205 111 1208Q65 1233 53 1251Q43 1266 43 1284Q43 1329 80 1362T169 1413T290 1442T407 1455T500
1458T589 1454T691 1438T786 1397T823 1325Q823 1295 811 1273T785 1240T741 1210Q713 1195 701 1176T684 1112T678 975Q678 954 681 938T687 911T700 893T716 881T739 876T763 874T795 873T829 874H934Q967 874 989 875T1026 882T1049 891T1060 906T1064 926T1065
953Q1065 956 1065 958Q1065 1037 1060 1088T1044 1164T1025 1195T1004 1210Q957 1238 944 1254Q928 1275 928 1305Q928 1319 928 1326T936 1351T956 1381T999 1409T1070 1434T1177 1451T1327 1458Q1696 1458 1696 1313Q1696 1248 1632 1217Q1595 1200 1585 1190Q1556
1158 1550 1020Q1548 961 1548 870Z" />
<glyph unicode="I" glyph-name="I" horiz-adv-x="890" d="M199 616V819Q199 1112 156 1167Q139 1189 105 1211T50 1255T29 1311Q29 1341 53 1365T112 1404T197 1430T289 1446T379 1454T448 1457T487 1458Q538 1458 575 1457T670 1448T767 1426T833 1384T862 1315Q862
1282 842 1264T788 1229T737 1192Q696 1145 696 819V616Q696 491 699 416T712 306T730 260T755 240Q760 237 762 236Q770 231 797 217T833 195T852 171T862 131Q862 115 860 103T848 74T820 45T767 19T684 -3T562 -17T395 -23Q51 -23 51 111Q51 140 68 159T114
195T154 225Q199 279 199 616Z" />
<glyph unicode="J" glyph-name="J" horiz-adv-x="1349" d="M1171 1077L1155 446Q1153 357 1125 284T1056 162T958 77T850 21T740 -10T646 -25T578 -29Q516 -29 452 -20T319 7T193 57T87 130T13 232T-14 362Q-14 465 50 536T215 608Q310 608 381 553T453 406Q453
388 446 355T438 309Q438 272 464 251T528 233Q586 239 621 277T669 371T684 511T681 674T672 859T672 1044Q674 1097 662 1131T629 1178T584 1200T538 1214T502 1238T487 1288Q487 1299 489 1310T500 1339T525 1371T572 1403T645 1431T754 1450T903 1458Q1335
1458 1335 1307Q1335 1278 1319 1260T1279 1229T1231 1202T1190 1156T1171 1077Z" />
<glyph unicode="K" glyph-name="K" horiz-adv-x="1779" d="M1083 106L944 276Q943 277 925 298T896 332T865 368T829 405T797 435T765 459T741 467Q705 467 693 437T680 354V311Q680 284 693 262T725 225T763 193T795 155T809 104T795 56T742 17T617 -13T401 -23Q284
-23 209 -14T97 14T49 53T37 102T47 149T74 178T108 202T141 246T164 324Q184 451 184 686Q184 972 164 1085Q157 1134 140 1164T105 1206T69 1228T41 1257T29 1311Q29 1349 45 1370Q114 1458 459 1458Q491 1458 507 1458T561 1456T622 1448T676 1433T724 1409T755
1371T768 1319Q768 1294 760 1277T739 1251T712 1227T685 1192T664 1132T655 1034Q655 948 694 948Q734 948 822 1058T911 1206Q911 1227 895 1259T879 1315Q879 1345 894 1368T929 1406T985 1431T1047 1447T1116 1455T1178 1458T1233 1458Q1243 1458 1247 1458Q1253
1458 1265 1458Q1298 1458 1317 1458T1374 1456T1436 1449T1490 1434T1539 1410T1570 1374T1583 1323Q1583 1276 1561 1252T1503 1222T1430 1216T1355 1209T1298 1184Q1290 1176 1249 1140T1174 1074T1112 1003T1083 932Q1083 916 1087 901T1104 868T1121 841T1145
812T1165 788L1593 299Q1612 277 1647 258T1710 227T1759 185T1780 113Q1780 83 1768 62T1739 29T1695 10T1646 2T1595 0H1247Q1189 0 1168 14T1083 106Z" />
<glyph unicode="L" glyph-name="L" horiz-adv-x="1361" d="M911 0H227Q136 0 102 16Q57 37 57 90Q57 119 69 136T99 160T138 178T177 204T209 255T223 348Q227 498 227 750Q227 822 221 949T213 1102Q212 1150 193 1177T146 1213T93 1229T48 1252T29 1300Q29 1336
52 1363T117 1407T201 1435T297 1450T384 1456T451 1458Q570 1455 652 1446T779 1426T847 1395T876 1360T881 1319Q881 1291 869 1275T839 1252T800 1236T761 1214T731 1173T719 1098V446Q719 386 725 349T749 283T801 240T889 227Q960 227 1011 242T1090 283T1135
339T1162 400T1181 455T1206 496T1249 512Q1312 512 1344 458T1376 336Q1376 258 1344 172T1263 29T1167 -29Q1150 -29 1135 -27T1098 -21T1065 -14Q997 0 911 0Z" />
<glyph unicode="M" glyph-name="M" horiz-adv-x="1902" d="M688 309L569 575Q568 577 564 588T556 604T548 621T538 638T527 651T513 661T498 664Q485 664 476 649T462 608T455 553T452 487T452 423T454 365T455 326Q455 265 468 230T501 182T539 164T572 143T586
98Q586 -23 287 -23Q249 -23 215 -20T133 -7T58 28T29 90Q29 122 42 138T73 159T112 173T148 207T168 279Q203 655 203 938Q203 1108 172 1171Q165 1187 130 1206T65 1250T35 1313Q35 1355 66 1385T151 1430T263 1451T389 1458Q429 1458 460 1457T516 1452T559
1444T592 1431T616 1417T635 1397T651 1374T668 1345T686 1313Q707 1279 767 1150T881 933T975 836Q1003 829 1039 886T1125 1054T1196 1204Q1206 1223 1224 1256Q1249 1304 1261 1325T1295 1375T1337 1415T1391 1438T1468 1454T1573 1458Q1868 1458 1868 1323Q1868
1295 1853 1272T1820 1235T1782 1200T1755 1155Q1744 1115 1734 979T1724 764Q1724 751 1727 683T1736 505T1745 317Q1747 276 1761 248T1793 205T1830 180T1861 151T1874 109Q1874 85 1864 66T1831 33T1787 9T1731 -7T1673 -16T1612 -21T1559 -23T1514 -23Q1506
-23 1503 -23Q1335 -23 1258 -4Q1139 26 1139 100Q1139 124 1153 144T1186 177T1222 209T1245 250Q1252 279 1259 365T1261 544T1223 637Q1205 637 1186 619T1146 565T1111 499T1075 421T1044 352Q1034 331 1015 283T978 196T941 116T900 53T860 33Q839 36 827
45T781 115T688 309Z" />
<glyph unicode="N" glyph-name="N" horiz-adv-x="1787" d="M639 1368L1124 942Q1127 940 1142 927T1169 905T1197 885T1227 868T1251 862Q1305 862 1305 981Q1305 1114 1286 1167Q1277 1195 1253 1213T1207 1241T1167 1273T1149 1333Q1149 1359 1160 1379T1188
1413T1233 1435T1282 1448T1337 1455T1388 1458T1433 1458Q1441 1458 1444 1458Q1575 1458 1630 1446Q1757 1419 1757 1327Q1757 1287 1740 1265T1699 1235T1651 1209T1614 1159Q1587 1085 1587 881V350Q1587 201 1578 140Q1553 -23 1462 -23Q1414 -23 1356 29L723
596Q641 672 598 672Q532 672 532 496Q532 375 547 309Q557 265 581 240T628 206T668 179T686 127Q686 79 654 47T567 0T470 -18T379 -23Q344 -23 311 -21T232 -10T154 14T98 57T74 123Q74 153 86 172T117 201T155 224T191 259T213 319Q231 433 231 629Q231 926
209 1073Q201 1121 184 1154T148 1201T107 1228T68 1248T40 1274T29 1321Q29 1346 39 1366T70 1401T113 1425T168 1442T225 1451T285 1456T337 1458T383 1458Q393 1458 397 1458Q493 1458 531 1444T639 1368Z" />
<glyph unicode="O" glyph-name="O" horiz-adv-x="1675" d="M817 -29Q657 -29 515 27T271 183T109 422T49 723Q49 936 153 1106T439 1370T842 1464Q959 1464 1063 1436T1244 1359T1386 1247T1494 1113T1567 969T1610 828T1624 702Q1624 542 1557 403T1377 171T1119
24T817 -29ZM1098 496Q1098 555 1085 636T1043 810T975 979T876 1108T748 1159Q668 1159 622 1092T575 940Q575 869 598 762T663 544T773 355T920 276Q1007 276 1052 340T1098 496Z" />
<glyph unicode="P" glyph-name="P" horiz-adv-x="1472" d="M971 987Q971 1089 919 1156T768 1223Q739 1223 723 1220T699 1205T691 1185T690 1157V850Q690 845 690 832T689 813T691 797T700 782T716 771T742 763T782 760Q878 760 924 823T971 987ZM219 324V1124Q219
1166 200 1191T152 1225T96 1242T49 1270T29 1325Q29 1363 55 1386T113 1416T182 1423Q208 1423 258 1421T334 1419Q465 1419 594 1426T804 1442T897 1450Q1004 1450 1100 1422T1274 1339T1398 1196T1444 995Q1444 884 1400 794T1279 646T1106 557T901 526Q870
526 810 531T723 537Q690 537 690 504V385Q691 325 703 285T733 228T770 200T807 183T835 161T846 117Q846 79 814 52T738 10T634 -12T536 -21T459 -23Q427 -23 400 -22T321 -18T231 -5T153 18T92 56T70 113Q70 144 85 161T122 188T166 208T203 249T219 324Z" />
<glyph unicode="Q" glyph-name="Q" horiz-adv-x="1681" d="M1098 496Q1098 555 1085 636T1043 810T975 979T876 1108T748 1159Q668 1159 622 1092T575 940Q575 869 598 762T663 544T773 355T920 276Q1007 276 1052 340T1098 496ZM827 -315L512 -186Q478 -172 420
-148T341 -116T284 -95T224 -80T172 -76Q164 -76 147 -78T121 -80Q98 -80 86 -62T74 -20Q74 41 123 77T236 113Q243 113 257 112T279 111Q309 111 309 131Q309 142 282 169T217 241T141 348T76 509T49 723Q49 936 153 1106T439 1370T842 1464Q959 1464 1063 1436T1244
1359T1386 1247T1494 1113T1567 969T1610 828T1624 702Q1624 466 1496 294T1137 29Q1128 26 1119 17T1110 0Q1110 -11 1119 -22T1150 -47T1206 -70T1294 -87T1417 -94Q1453 -94 1489 -85T1550 -67T1579 -57Q1600 -57 1616 -85T1632 -137Q1632 -158 1616 -187T1563
-251T1474 -315T1340 -363T1163 -383Q1074 -383 1000 -367T827 -315Z" />
<glyph unicode="R" glyph-name="R" horiz-adv-x="1671" d="M668 1114L659 920Q658 892 657 870T668 835T713 821Q809 821 849 871T889 1022Q889 1225 745 1225Q688 1225 676 1183Q671 1168 668 1114ZM184 426V1010Q184 1098 168 1151T129 1221T84 1248T45 1273T29
1323Q29 1363 54 1390T120 1429T196 1445T270 1450Q289 1450 310 1449T356 1447T397 1444Q479 1436 522 1436Q585 1436 721 1444Q916 1450 920 1450Q992 1450 1061 1438T1195 1397T1310 1326T1389 1219T1419 1075Q1419 980 1374 900T1245 778Q1220 764 1216 755Q1212
747 1212 737Q1212 723 1221 713T1238 699T1264 688Q1372 648 1424 566T1499 319Q1506 267 1525 238T1565 202T1608 189T1643 169T1657 119Q1657 54 1575 7T1331 -41Q1124 -41 1030 69Q969 141 926 307Q918 339 899 418Q889 459 879 487T849 545T800 589T729 604Q703
604 692 598T675 562T668 469Q668 351 682 270Q686 244 700 227T732 200T765 180T792 152T803 106Q803 82 796 65T764 30T699 1T587 -16T420 -23Q31 -23 31 127Q31 155 47 172T85 202T130 235T168 304T184 426Z" />
<glyph unicode="S" glyph-name="S" horiz-adv-x="1388" d="M276 625Q187 697 135 789T82 987Q82 1052 106 1118T180 1247T300 1357T469 1435T684 1464Q741 1464 811 1449T932 1420T993 1405Q1006 1405 1038 1417T1094 1430Q1120 1430 1158 1403T1232 1333T1293
1229T1319 1106Q1319 1050 1286 1009T1198 967Q1161 967 1123 991T1048 1049T973 1118T881 1176T768 1200Q715 1200 676 1175T637 1098Q637 1052 667 1023T752 976T869 941T1011 894T1155 821Q1252 757 1299 676T1346 481Q1346 407 1323 336T1246 199T1116 82T925
1T672 -29Q560 -29 415 -2T188 70Q122 107 83 228T43 446Q43 492 64 524T129 557Q158 557 182 539T225 493T266 429T318 359T388 296T488 249T627 231Q655 231 688 239T752 271T784 332Q784 373 754 400T670 447T555 484T416 539T276 625Z" />
<glyph unicode="T" glyph-name="T" horiz-adv-x="1509" d="M516 1436H1020Q1108 1436 1180 1450Q1229 1464 1264 1464Q1295 1464 1336 1435T1416 1359T1482 1238T1509 1085Q1509 1007 1469 961T1352 915Q1303 915 1266 940T1206 1000T1165 1071T1123 1132T1071
1157Q1059 1157 1050 1154T1033 1146T1021 1133T1012 1118T1005 1100T1001 1083T1000 1065T999 1050T999 1038V1030V401Q999 344 1013 307T1048 255T1093 229T1139 211T1174 184T1188 131Q1188 109 1182 91T1150 50T1081 13T957 -12T766 -23Q279 -23 279 131Q279
168 300 188T347 214T403 234T446 274Q471 324 477 492L494 944Q496 1006 493 1048T484 1112T467 1143T449 1155T430 1157Q405 1157 380 1132T331 1072T280 1001T213 940T127 915Q70 915 35 959T0 1063Q0 1148 41 1242T144 1400T264 1464Q272 1464 340 1450Q431
1436 516 1436Z" />
<glyph unicode="U" glyph-name="U" horiz-adv-x="1765" d="M1288 571V1081Q1288 1132 1275 1167T1243 1218T1200 1245T1158 1265T1125 1290T1112 1335Q1112 1364 1128 1386T1175 1422T1234 1443T1306 1454T1371 1457T1427 1458Q1432 1458 1434 1458Q1737 1458
1737 1339Q1737 1308 1721 1290T1683 1262T1638 1238T1599 1192T1583 1108V555Q1583 529 1583 510T1576 445T1558 363T1522 275T1463 184T1375 103T1252 34T1088 -11T877 -29Q403 -29 236 249Q145 400 160 618V1092Q162 1128 150 1155T118 1200T78 1232T44 1268T29
1315Q29 1316 29 1319Q29 1330 29 1337T37 1361T58 1388T101 1414T172 1437T279 1452T428 1458Q549 1458 631 1448T754 1417T812 1374T829 1317Q829 1287 821 1270T800 1245T770 1232T737 1218T706 1192T682 1142T670 1057V680Q670 490 745 386T979 281Q1043 281
1094 295T1177 331T1232 383T1265 439T1281 496T1287 540T1288 568Q1288 570 1288 571Z" />
<glyph unicode="V" glyph-name="V" horiz-adv-x="1728" d="M1479 1090L1018 156Q973 68 950 40Q899 -23 823 -23Q794 -23 771 -19T730 -1T699 22T673 56T652 94T629 141L221 1042Q174 1144 147 1173T61 1212Q0 1222 0 1292Q0 1337 36 1370T120 1419T235 1444T344
1456T430 1458Q516 1458 584 1453T694 1439T767 1418T812 1394T835 1369T843 1347T844 1328Q844 1326 844 1325Q844 1299 829 1279T795 1248T761 1222T745 1188Q745 1176 753 1152T777 1090T806 1023T842 946T874 879Q878 871 889 847T908 808T930 778T961 762Q980
761 997 771T1027 802T1051 840T1071 882T1087 915Q1206 1153 1206 1198Q1206 1223 1190 1239T1154 1262T1118 1288T1102 1333Q1102 1458 1442 1458Q1536 1458 1597 1450T1690 1425T1732 1389T1743 1339Q1743 1300 1718 1278T1653 1251Q1592 1244 1576 1235Q1546
1219 1507 1145Q1496 1124 1479 1090Z" />
<glyph unicode="W" glyph-name="W" horiz-adv-x="2238" d="M1378 119L1190 567Q1188 571 1183 584T1174 607T1163 628T1148 646T1130 653Q1107 653 1092 627T1044 519Q1031 487 1024 469L899 160Q862 68 847 45Q805 -18 719 -23Q711 -23 702 -23Q661 -23 632 -12T581
26T549 76T520 143L139 1116Q123 1156 103 1180T65 1214T33 1232T9 1259T0 1313Q0 1458 371 1458Q481 1458 551 1450T658 1424T708 1384T721 1327Q721 1297 698 1262T674 1194Q674 1174 684 1136T706 1065T731 999T745 961Q804 784 848 784Q898 784 952 956Q953
961 954 963Q960 973 970 1002T981 1042Q981 1065 949 1132T877 1223Q801 1260 801 1323Q801 1324 801 1325Q800 1337 801 1347T823 1380T881 1417T1002 1445T1200 1458Q1282 1458 1346 1453T1451 1440T1519 1419T1561 1396T1581 1371T1588 1349T1589 1331Q1589
1308 1575 1289T1543 1257T1512 1228T1497 1194Q1497 1169 1513 1127T1557 1027T1587 967T1599 939T1618 896T1640 855T1668 820T1696 807Q1727 807 1766 896T1829 1075T1853 1184Q1853 1213 1832 1229T1787 1252T1741 1280T1720 1339Q1720 1364 1731 1383T1759
1415T1803 1436T1852 1449T1907 1455T1957 1458T2002 1458Q2009 1458 2013 1458Q2251 1458 2251 1333Q2251 1305 2242 1287T2217 1255T2184 1227T2145 1184T2109 1116L1757 195Q1737 144 1722 113T1682 46T1625 -6T1550 -23Q1480 -23 1445 10T1378 119Z" />
<glyph unicode="X" glyph-name="X" horiz-adv-x="1710" d="M1249 1090L1108 909Q1079 880 1079 866Q1079 861 1082 854T1090 843T1100 830T1108 821L1491 340Q1519 305 1553 282T1613 248T1662 228T1697 197T1710 143Q1710 125 1709 114T1697 84T1669 52T1613
24T1523 -1T1388 -16T1202 -23Q1037 -23 962 -9Q815 20 815 102Q815 128 828 147T857 176T886 197T899 223Q899 276 784 428Q781 431 775 439T763 452T750 457Q731 457 665 361T598 242Q598 227 611 214T641 192T670 160T684 106Q684 -23 342 -23Q257 -23 194 -15T95
6T36 38T7 75T0 117Q0 160 30 188T119 217Q179 217 229 254T365 397L553 633L562 644Q571 655 576 663T582 676Q582 692 553 721L262 1098Q234 1135 199 1158T137 1189T85 1208T48 1236T35 1288Q35 1309 38 1324T69 1367T145 1412T296 1444T541 1458Q684 1458 762
1444T869 1403T897 1329Q897 1298 886 1278T860 1249T835 1231T823 1208Q823 1185 862 1134T920 1083Q938 1083 982 1137T1026 1208Q1026 1223 1014 1235T987 1256T960 1285T948 1333Q948 1362 961 1382T1010 1421T1118 1449T1300 1458Q1327 1458 1344 1458T1396
1455T1454 1448T1507 1434T1555 1411T1586 1377T1599 1329Q1599 1256 1531 1237Q1511 1232 1452 1227Q1398 1223 1345 1184T1249 1090Z" />
<glyph unicode="Y" glyph-name="Y" horiz-adv-x="1677" d="M1427 1171L1176 895Q1112 815 1096 755T1079 578Q1079 331 1108 268Q1117 249 1141 234T1187 210T1227 180T1245 125Q1245 -23 821 -23Q706 -23 620 -13T487 13T412 49T375 88T367 125Q367 156 379 175T410
203T450 220T490 241T520 279Q553 353 553 618Q553 704 536 749T463 866L231 1135Q198 1173 153 1198T76 1233T21 1264T-2 1319Q-2 1358 13 1377Q77 1458 461 1458Q549 1458 618 1453T731 1442T806 1423T851 1401T873 1377T882 1355T883 1333Q883 1305 854 1271T825
1217Q825 1179 873 1111T958 1042Q997 1042 1047 1101T1098 1198Q1098 1221 1083 1240T1053 1281T1038 1337Q1038 1458 1354 1458Q1543 1458 1610 1432T1677 1337Q1677 1300 1662 1281T1619 1254T1560 1241T1492 1218T1427 1171Z" />
<glyph unicode="Z" glyph-name="Z" horiz-adv-x="1476" d="M1307 1247L866 489Q776 339 776 303Q776 256 918 256Q991 256 1044 271T1126 309T1175 362T1206 420T1230 472T1263 511T1315 526Q1389 526 1425 485T1462 369Q1462 290 1440 216T1386 92T1318 12T1255
-18Q1235 -18 1163 -8Q1077 0 1044 0H180Q172 0 147 -1T111 -2T83 3T57 15T42 39T35 78Q35 86 36 94T40 110T45 124T53 140T60 153T69 167T78 180L594 1057Q631 1116 631 1135Q631 1194 496 1194Q444 1194 404 1179T341 1140T300 1086T269 1027T242 973T207 933T156
918Q96 918 55 971T14 1087Q14 1160 51 1248T134 1393T205 1450Q209 1450 216 1449T238 1443T270 1436Q378 1421 514 1421Q552 1421 911 1440Q1181 1458 1251 1458Q1298 1458 1327 1434T1356 1364Q1356 1351 1350 1334T1338 1304T1321 1273T1307 1247Z" />
<glyph unicode="[" glyph-name="bracketleft" horiz-adv-x="1073" d="M657 1286V150Q657 143 657 130Q657 93 657 77T662 39T674 8T697 -10T735 -22T793 -25Q815 -25 856 -21T918 -16Q957 -16 987 -34T1018 -88Q1018 -165 929 -190Q865 -207 673 -207H672H671H670H669H668H667H666H665H664H663H662H661H660H659H658H657H656H654Q634
-207 623 -207Q605 -207 571 -207Q534 -206 503 -207T444 -205T396 -199T356 -186T325 -164T301 -132T284 -86T273 -25T266 53T264 150V1286Q264 1355 267 1404T277 1493T295 1556T324 1599T365 1624T418 1637T485 1642T569 1642Q604 1642 623 1642Q829 1642 887
1634Q996 1618 1014 1555Q1018 1541 1018 1524Q1018 1487 988 1470T918 1452Q898 1452 857 1456T793 1460Q772 1460 756 1459T727 1456T704 1449T686 1440T674 1427T666 1411T661 1391T658 1367T657 1339T657 1306Q657 1293 657 1286Z" />
<glyph unicode="\" glyph-name="backslash" horiz-adv-x="1015" d="M805 -115L240 932Q191 1024 128 1128T33 1286T0 1360Q-1 1383 18 1399T68 1423T124 1433T174 1436Q201 1436 220 1432T251 1421T276 1396T296 1362T321 1311T354 1247L920 201Q970 109 1034
5T1131 -153T1163 -227Q1163 -251 1141 -267T1085 -291T1024 -300T971 -303Q948 -303 932 -299T906 -288T884 -263T864 -229T838 -179T805 -115Z" />
<glyph unicode="]" glyph-name="bracketright" horiz-adv-x="1073" d="M416 150V1286Q416 1293 416 1306Q416 1343 416 1359T411 1397T400 1428T377 1445T338 1457T281 1460Q259 1460 218 1456T156 1452Q116 1452 86 1469T55 1524Q55 1601 143 1625Q206 1642 397
1642H398H399H400H401H402H403H404H405H406H407H408H409H410H411H412H413H415Q439 1642 451 1642Q616 1642 647 1639Q732 1629 765 1579Q807 1516 809 1318Q809 1303 809 1286V150Q809 89 807 44T799 -40T784 -102T762 -147T732 -177T692 -195T641 -204T579 -207T503
-207Q469 -207 451 -207Q244 -207 185 -198Q76 -182 59 -118Q55 -105 55 -88Q55 -52 85 -34T156 -16Q176 -16 217 -20T281 -25Q307 -25 326 -24T359 -17T383 -8T399 9T409 28T414 56T416 89T416 130Q416 143 416 150Z" />
<glyph unicode="^" glyph-name="asciicircum" horiz-adv-x="1290" d="M879 418L645 954L412 418Q393 370 373 355T315 340H250Q217 340 184 350T150 381Q150 391 152 402T157 420T164 440T172 459L537 1296Q540 1303 545 1308T558 1317T573 1323T592 1327T609
1329T628 1330T645 1331T661 1331T680 1330T698 1328T716 1324T731 1318T745 1309T754 1296L1118 459Q1120 452 1125 440T1133 420T1138 402T1141 381Q1141 360 1107 350T1040 340H977Q939 340 919 355T879 418Z" />
<glyph unicode="_" glyph-name="underscore" horiz-adv-x="1024" d="M0 -154H1024V-256H0V-154Z" />
<glyph unicode="`" glyph-name="grave" horiz-adv-x="835" d="M582 1149Q485 1149 397 1179T257 1250T174 1329T143 1389Q143 1422 172 1446T245 1481T326 1498T393 1503Q410 1503 434 1501T490 1492T543 1473T565 1442Q565 1430 557 1417T549 1395Q549 1377 571
1357T620 1322T669 1280T692 1225Q692 1149 582 1149Z" />
<glyph unicode="a" glyph-name="a" horiz-adv-x="1220" d="M571 440Q521 440 488 401T455 309Q455 265 478 232T543 199Q571 199 589 212T614 249T624 295T627 344Q627 364 627 372T624 396T616 420T599 433T571 440ZM1069 694V489Q1069 416 1076 367T1093 297T1117
266T1143 256T1167 256T1185 246T1192 215Q1192 158 1147 101T1029 8T883 -29Q828 -29 789 -13T733 23T699 59T666 76Q655 76 642 69T607 48T569 25Q479 -29 369 -29Q280 -29 205 1T80 99T29 264Q29 309 46 354T101 442T196 517T338 570T528 590Q531 590 537 590Q564
590 575 591T600 598T617 619T621 659Q621 868 524 868Q490 868 462 845T411 790T363 726T297 670T207 647T125 679T92 760Q92 822 149 878T290 969T466 1026T633 1047Q676 1047 724 1041T836 1011T949 952T1034 848T1069 694Z" />
<glyph unicode="b" glyph-name="b" horiz-adv-x="1361" d="M610 1348L598 952Q598 920 612 920Q617 920 629 928T664 953T709 983Q812 1047 924 1047Q1091 1047 1208 920T1325 594Q1325 421 1246 279T1025 54T711 -29Q623 -29 544 -8T420 37T342 83T299 104Q287
104 246 89T166 74Q104 74 104 115Q104 122 114 159T135 279T145 479V1024Q145 1057 129 1077T91 1106T46 1125T8 1154T-8 1206Q-8 1254 56 1299T212 1373T398 1419T559 1436Q579 1436 590 1429T606 1409T611 1381T610 1348ZM864 416Q864 449 861 486T846 568T818
648T771 707T702 731Q670 731 649 719T618 685T605 640T602 588Q602 389 612 298T642 183T707 158Q755 158 788 182T836 249T858 330T864 416Z" />
<glyph unicode="c" glyph-name="c" horiz-adv-x="1132" d="M35 512Q35 658 112 780T328 975T635 1047Q745 1047 837 1019T985 944T1073 843T1104 733Q1104 647 1047 589T903 530Q842 530 806 556T755 619T729 694T692 758T623 784Q559 784 521 731T483 610Q483
492 562 399T758 305Q814 305 858 318T930 345T973 358Q1012 358 1038 323T1065 248Q1065 149 931 60T594 -29Q479 -29 377 12T199 124T79 296T35 512Z" />
<glyph unicode="d" glyph-name="d" horiz-adv-x="1398" d="M817 569Q817 598 817 616T813 669T802 727T782 774T748 810T698 823Q650 823 616 786T566 692T544 586T537 492Q537 459 540 427T554 358T580 292T624 246T688 227Q712 227 731 236T763 264T786 303T801
354T810 406T815 462T817 511T817 555Q817 565 817 569ZM1270 1325V346Q1270 306 1281 281T1308 243T1340 220T1367 191T1378 143Q1378 106 1346 77T1260 31T1152 2T1039 -15T951 -21T907 -23Q872 -23 858 -6T844 33T839 72T809 90Q801 90 789 83T753 58T713 31Q616
-29 512 -29Q415 -29 325 19T173 145T73 318T35 508Q35 643 101 767T284 969T539 1047Q601 1047 656 1032T744 1001T782 985Q815 985 815 1075Q815 1110 800 1130T762 1159T719 1174T682 1198T666 1245Q666 1297 745 1338T930 1398T1107 1426T1194 1436Q1237 1436
1253 1408T1270 1325Z" />
<glyph unicode="e" glyph-name="e" horiz-adv-x="1140" d="M985 471H541Q538 471 531 471T520 471T510 471T500 468T492 463T487 455T485 442Q485 369 561 312T715 254Q782 254 840 277T935 323T987 346Q1017 346 1042 311T1067 244Q1067 188 1019 136T900 48T746
-8T594 -29Q461 -29 352 16T176 138T72 307T35 502Q35 617 82 719T207 893T391 1005T610 1047Q710 1047 795 1018T937 943T1035 840T1094 728T1112 625Q1112 576 1102 544T1073 497T1033 477T985 471ZM598 668Q604 668 625 668T654 667T678 671T700 680T713 699T719
729Q719 786 687 823T598 860Q548 860 512 818T475 725Q475 707 481 695T494 677T517 669T542 666T571 667T598 668Z" />
<glyph unicode="f" glyph-name="f" horiz-adv-x="913" d="M170 309L186 530Q189 580 171 603T104 627Q101 627 87 626T63 625T41 628T23 636T16 653Q16 791 16 793Q19 827 40 834Q49 837 66 838Q84 839 93 841T112 852T123 877Q123 890 104 924T65 1011T45 1120Q45
1190 73 1247T146 1340T253 1401T375 1436T502 1446Q597 1446 672 1427T791 1379T864 1313T903 1244T913 1182Q913 1117 868 1071T758 1024Q709 1024 669 1043T602 1089T552 1143T500 1189T440 1208Q410 1208 391 1187T371 1135Q371 1099 393 1068T448 1013T516
968T581 922T621 872Q626 858 630 854T649 850Q667 850 702 852T758 854T803 851T838 838T848 811L838 662Q837 641 824 634T784 627Q754 627 743 627T712 625T687 621T670 611T656 596T649 572T644 539T643 494Q643 387 664 311Q674 277 696 257T744 229T792 212T831
183T846 127Q846 112 845 103T834 76T809 47T758 21T675 -2T552 -17T381 -23Q18 -23 18 123Q18 155 33 174T69 202T113 222T151 253T170 309Z" />
<glyph unicode="g" glyph-name="g" horiz-adv-x="1243" d="M717 649Q717 687 712 722T694 797T653 861T584 885Q528 885 499 841T469 737Q469 702 474 665T491 585T530 516T594 489Q658 489 687 535T717 649ZM332 -102Q332 -140 357 -169T422 -212T499 -233T571
-240Q604 -240 635 -237T706 -223T769 -191T793 -135Q793 -105 770 -90T713 -74Q702 -74 638 -80T537 -86Q510 -86 437 -78T356 -70Q332 -70 332 -102ZM1229 16Q1229 -42 1208 -100T1135 -215T1008 -317T814 -388T551 -416Q415 -416 311 -392T147 -328T59 -240T29
-141Q29 -101 46 -73T85 -33T123 -10T141 10Q141 20 114 45T59 107T31 184Q31 234 57 275T114 337T171 375T197 401Q197 408 175 433T127 488T79 569T57 672Q57 743 91 804T179 907T302 977T440 1020T573 1034Q630 1034 744 1015T891 995Q944 995 993 1012T1070
1049T1122 1087T1155 1104Q1187 1104 1205 1071T1223 1004Q1223 965 1205 925T1166 860T1126 813T1108 784Q1108 774 1111 753T1114 721Q1114 641 1079 577T987 471T857 401T711 362T567 350Q550 350 515 353T461 356Q435 356 421 341T406 301Q406 272 432 254T486
230T543 225T727 242T926 260Q1003 260 1062 240T1157 184T1211 107T1229 16Z" />
<glyph unicode="h" glyph-name="h" horiz-adv-x="1460" d="M1331 635L1339 305Q1339 257 1349 225T1375 178T1404 154T1429 130T1440 94Q1440 -23 1102 -23Q791 -23 791 82Q791 101 800 117T821 145T846 183T864 244Q879 319 879 449Q879 479 879 498T875 551T867
608T851 658T825 703T785 731T731 743Q696 743 672 731T636 704T618 658T611 609T610 553Q610 548 610 545V307Q610 260 618 228T639 181T663 156T683 132T692 98Q692 -23 381 -23Q20 -23 20 102Q20 125 28 139T50 162T79 183T109 219T135 281Q160 377 160 760Q160
813 157 910T152 1038Q151 1078 137 1104T105 1141T69 1162T38 1187T25 1229Q25 1275 80 1313T212 1373T370 1410T502 1430T559 1436Q603 1436 614 1421T625 1358L612 969Q610 954 611 936T616 902T631 875T662 864Q678 864 695 883T734 929T785 982T864 1028T979
1047Q1034 1047 1080 1037T1160 1010T1221 969T1265 919T1296 862T1315 805T1325 749T1330 701T1331 660T1331 635Z" />
<glyph unicode="i" glyph-name="i" horiz-adv-x="768" d="M625 950V379Q625 312 637 270T667 213T702 187T732 162T745 117Q745 -23 393 -23Q292 -23 220 -14T112 7T55 40T31 73T27 106Q27 131 40 150T71 180T108 209T135 248Q155 301 157 468T143 692Q137 716
117 731T75 755T37 783T20 834Q20 884 100 926T284 992T466 1027T561 1040Q590 1040 605 1025T622 994T625 950ZM614 1307Q614 1251 570 1209T459 1146T331 1116T219 1106Q146 1106 94 1140T41 1245Q41 1292 84 1331T190 1391T312 1424T416 1436Q450 1436 482 1430T545
1410T595 1370T614 1307Z" />
<glyph unicode="j" glyph-name="j" horiz-adv-x="794" d="M651 932V51Q651 -22 649 -67T632 -179T586 -285Q533 -348 431 -382T233 -416Q197 -416 159 -409T81 -386T17 -341T-8 -272Q-8 -246 12 -227T57 -207Q68 -207 88 -210T117 -213Q140 -213 154 -195T168
-154Q168 -133 163 -109T158 -47V594Q158 640 148 670T124 711T92 731T60 744T35 764T25 805Q25 859 83 903T220 972T386 1012T523 1034T582 1040Q602 1040 615 1035T636 1022T646 999T650 973T651 941Q651 935 651 932ZM627 1307Q627 1251 583 1209T472 1146T344
1116T231 1106Q158 1106 106 1140T53 1245Q53 1292 96 1331T202 1391T325 1424T428 1436Q475 1436 517 1426T593 1385T627 1307Z" />
<glyph unicode="k" glyph-name="k" horiz-adv-x="1579" d="M944 68L754 311Q697 393 676 393T655 336Q654 293 659 264T674 220T694 195T716 178T732 156T739 119T736 82T714 45T662 10T563 -13T406 -23Q235 -23 175 -11Q47 13 47 106Q47 133 58 147T86 170T118
188T147 228T162 305Q178 689 178 733V1026Q178 1072 162 1096T122 1125T76 1134T37 1151T20 1198Q20 1246 93 1292T266 1369T456 1417T592 1436Q630 1436 640 1417T649 1358L639 924Q636 815 643 778T684 741Q711 741 779 780T848 842Q848 854 828 880T807 928Q807
958 830 980T884 1013T958 1030T1029 1038T1087 1040Q1395 1040 1395 911Q1395 870 1375 857T1299 830T1196 786Q1096 736 1096 711Q1096 659 1374 317Q1404 280 1444 251T1511 207T1559 171T1579 119Q1579 0 1374 0H1085Q1024 0 1002 10T944 68Z" />
<glyph unicode="l" glyph-name="l" horiz-adv-x="786" d="M641 764V367Q641 255 649 229Q657 205 676 191T715 172T749 150T764 104Q764 81 755 62T728 30T689 7T641 -8T588 -17T535 -21T486 -23T443 -23Q431 -23 426 -23Q269 -23 197 -9Q47 21 47 113Q47 137
61 151T94 171T132 192T160 233Q186 317 186 674Q186 679 186 727T187 799T185 865T181 940T172 999Q163 1041 144 1068T105 1107T65 1131T33 1162T20 1214Q20 1264 76 1305T209 1370T372 1409T512 1430T582 1436Q630 1436 649 1408T668 1329Q668 1316 661 1234T648
1023T641 764Z" />
<glyph unicode="m" glyph-name="m" horiz-adv-x="2076" d="M143 383V571Q143 715 96 758Q91 763 73 773T48 795T41 831Q41 874 94 911T220 970T371 1009T498 1033T553 1040Q587 1040 597 1017T608 952Q608 949 608 939T607 923T608 906T611 888T617 873T627 862T643
858T666 870T706 907T754 950Q868 1040 1014 1040Q1082 1040 1132 1022T1209 976T1252 922T1280 877T1303 858Q1310 858 1324 870T1365 907T1415 950Q1539 1040 1663 1040Q1811 1040 1894 961T1978 733V301Q1978 261 1990 230T2016 184T2042 151T2054 113Q2054
68 2019 38T1925 -4T1826 -19T1741 -23Q1706 -23 1663 -19T1565 -3T1473 35T1436 98Q1436 123 1447 143T1471 178T1496 221T1507 291V475Q1507 588 1500 626Q1480 733 1401 733Q1379 733 1362 726T1333 708T1315 680T1304 646T1298 609T1295 571T1296 535Q1296
523 1296 518V391Q1296 321 1303 273T1322 203T1344 168T1362 140T1370 106Q1370 70 1343 44T1280 6T1194 -14T1114 -22T1051 -23Q961 -23 898 -16T802 0T751 27T730 57T727 92Q728 121 738 137T764 163T793 190T817 248T825 358V475V502Q825 530 825 538T824 574T819
614T812 649T799 683T780 708T754 727T719 733Q697 733 680 726T651 708T633 680T622 646T616 609T613 571T614 535Q614 523 614 518V352Q614 288 623 245T642 184T661 146T670 102Q670 -23 342 -23Q20 -23 20 84Q20 108 32 124T63 156T100 193T130 263T143 383Z"
/>
<glyph unicode="n" glyph-name="n" horiz-adv-x="1443" d="M610 500V342Q610 287 617 249T634 193T655 163T673 136T680 100Q680 -23 331 -23Q326 -23 324 -23Q293 -23 273 -23T214 -19T147 -8T92 13T48 48T33 100Q33 127 42 140T66 160T95 178T120 222T133 311L141
618Q142 660 130 687T100 727T64 751T33 781T20 829Q20 867 93 907T261 976T434 1022T532 1040Q565 1040 585 1017T606 961Q606 954 605 942T604 924Q604 902 614 886T645 870Q660 870 672 880T704 916T737 956Q821 1040 956 1040Q1018 1040 1069 1028T1156 995T1220
942T1265 875T1294 793T1311 704T1320 608T1323 509T1325 409T1329 313Q1332 268 1342 238T1366 194T1393 168T1414 140T1423 100Q1423 87 1423 81T1416 60T1397 36T1357 14T1290 -5T1189 -17T1047 -23Q1045 -23 1040 -23Q1004 -23 981 -23T914 -16T845 0T797 33T776
88Q776 108 783 121T800 143T822 163T842 198T854 260Q855 278 859 321T866 396T870 473T868 552T856 621T832 680T790 718T729 733Q710 733 694 729T667 718T646 700T631 678T621 651T614 623T611 591T610 560T610 529T610 500Z" />
<glyph unicode="o" glyph-name="o" horiz-adv-x="1296" d="M598 -29Q484 -29 383 4T204 100T82 259T37 473Q37 606 92 716T239 898T450 1008T696 1047Q825 1047 934 1000T1113 875T1221 703T1260 512T1220 328T1114 176T962 65T783 -5T598 -29ZM788 356Q788 399
779 466T751 614T695 749T608 805Q560 805 533 767T508 682Q512 619 521 556T550 413T607 283T694 229Q788 224 788 356Z" />
<glyph unicode="p" glyph-name="p" horiz-adv-x="1431" d="M891 483Q891 527 885 566T865 649T819 717T741 743Q700 743 682 721T654 612T643 340Q643 290 668 269T748 248Q891 248 891 483ZM180 293V406Q180 656 158 678Q150 686 126 691T79 702T38 731T20 795Q20
844 88 891T250 970T439 1020T594 1040Q629 1040 640 1027T651 979Q651 936 674 936Q682 936 711 953T776 991T870 1029T985 1047Q1082 1047 1162 1002T1292 883T1369 720T1397 539Q1397 435 1361 334T1263 152T1106 21T903 -29Q861 -29 813 -16T731 10T692 23Q659
23 659 -43Q659 -86 672 -114T703 -155T741 -178T773 -206T786 -250Q786 -290 757 -318T682 -358T597 -374T520 -379Q318 -379 175 -317T31 -174Q31 -143 45 -125T77 -101T118 -79T152 -37Q168 -3 174 63T180 293Z" />
<glyph unicode="q" glyph-name="q" horiz-adv-x="1394" d="M801 494Q801 501 801 532T802 582T800 634T794 689T781 737T760 779T727 806T682 817Q665 817 645 807T602 773T564 694T549 565Q549 411 598 324T713 236Q734 236 750 246T776 276T791 316T799 366T801
413T802 460T801 494ZM35 512Q35 641 84 744T219 913T414 1012T649 1047Q735 1047 854 1022T989 997Q1032 997 1101 1022T1210 1047Q1303 1047 1303 973Q1303 946 1293 853T1272 588T1262 197Q1262 165 1263 130T1265 51T1268 -16Q1270 -81 1281 -120T1308 -173T1338
-195T1363 -219T1374 -266Q1374 -403 1094 -403Q1054 -403 1005 -400T889 -384T768 -354T677 -301T639 -221Q639 -197 649 -182T676 -159T710 -142T745 -119T771 -80T782 -14Q782 41 754 41Q740 41 706 24T618 -11T502 -29Q392 -29 302 16T155 137T66 309T35 512Z"
/>
<glyph unicode="r" glyph-name="r" horiz-adv-x="1150" d="M160 498V621Q160 676 147 707T115 747T78 762T46 784T33 834Q33 879 83 917T202 976T347 1013T471 1034T530 1040Q560 1040 575 1037T600 1020T611 995T618 950Q618 947 619 934T621 914T626 898T636
884T653 879Q666 879 681 895T714 936T756 983T820 1023T909 1040Q1011 1040 1074 973T1137 803Q1137 701 1062 629T885 557Q840 557 802 575T744 615T701 655T662 674Q650 674 641 667T627 646T619 618T615 584T614 551T613 521T614 500Q614 407 631 274Q634 249
653 235T696 215T743 200T783 172T799 117Q799 90 788 69T759 33T710 8T648 -8T572 -17T487 -22T393 -23Q365 -23 359 -23T319 -23T270 -20T222 -15T171 -7T125 5T82 22T51 46T27 76T20 115Q20 144 35 166T70 199T109 229T137 272Q160 342 160 498Z" />
<glyph unicode="s" glyph-name="s" horiz-adv-x="1026" d="M469 1047Q508 1047 592 1034Q657 1020 676 1020Q700 1020 731 1034Q772 1047 786 1047Q830 1047 876 996T948 881T975 774Q975 733 945 706T874 678Q835 678 796 703T729 759T667 814T602 840Q574 840
551 820T528 770Q528 744 553 720T617 674T705 629T802 575T889 507T954 416T979 297Q979 203 924 128T777 12T580 -29Q513 -29 428 -14Q326 -2 319 -2Q307 -2 279 -6Q253 -10 240 -10Q208 -10 189 -3T150 29Q110 73 79 148T47 281Q47 377 125 377Q150 377 178
356T232 306T286 246T347 195T412 174Q445 174 468 191T492 240Q492 267 462 293T388 341T291 395T195 466T120 569T90 713Q90 863 198 955T469 1047Z" />
<glyph unicode="t" glyph-name="t" horiz-adv-x="997" d="M664 748V442Q664 272 776 272Q812 272 855 295T913 319Q942 319 962 288T983 225Q983 160 917 101T748 6T543 -29Q517 -29 490 -26T425 -12T354 14T288 59T230 125T191 219T176 342V764Q176 815 166 821Q161
824 153 824T124 824T86 823Q78 823 65 823T47 823T32 823T19 823T9 825T1 827T-4 831Q-8 835 -10 840T-13 853T-14 867T-15 888T-14 913Q-14 918 -14 929T-15 945T-13 958T-7 971T4 981L471 1278Q486 1287 493 1291T511 1298T526 1300T548 1301T578 1300Q585 1300
597 1300Q645 1301 654 1290T664 1214Q664 1198 664 1168T663 1123T664 1089T670 1063Q674 1052 687 1050T743 1047H887Q952 1047 963 1033T975 948Q975 902 972 879T958 842T930 826T881 823H739Q685 823 675 813T664 748Z" />
<glyph unicode="u" glyph-name="u" horiz-adv-x="1458" d="M616 963V442Q616 411 617 388T625 334T644 282T679 248T733 233Q760 233 781 242T815 264T838 300T852 341T859 389T861 436T861 484T860 524Q860 693 852 745Q847 779 827 800T787 828T751 853T735
899Q735 941 798 971T953 1015T1113 1034T1225 1040Q1329 1040 1329 926Q1329 893 1327 829T1325 731V319Q1325 285 1336 265T1365 237T1398 221T1426 199T1438 156Q1438 107 1381 70T1241 14T1086 -14T963 -23Q919 -23 897 -11T870 20T866 56T857 87T827 100Q817
100 804 93T764 67T723 39Q625 -23 518 -23Q443 -23 385 -8T290 36T226 103T187 190T168 292T162 405T162 525Q162 570 162 592Q162 656 154 700T134 767T106 803T76 822T49 836T28 860T20 903Q20 934 57 958T156 997T279 1020T408 1034T507 1039T553 1040Q593
1040 604 1023T616 963Z" />
<glyph unicode="v" glyph-name="v" horiz-adv-x="1349" d="M502 121L160 758Q140 795 108 814T50 838T5 861T-14 918Q-14 937 -9 951T20 983T85 1012T207 1032T397 1040Q743 1040 743 936Q743 907 724 885T685 843T666 801Q666 760 711 680T793 600Q839 600 886
687T934 815Q934 840 899 878T864 946Q864 1042 1137 1040Q1147 1040 1151 1040Q1364 1040 1364 950Q1364 923 1350 907T1313 881T1265 863T1214 834T1171 782L836 129Q753 -29 666 -29Q638 -29 613 -16T566 24T531 70T502 121Z" />
<glyph unicode="w" glyph-name="w" horiz-adv-x="2127" d="M1235 203L1130 371Q1129 372 1121 385T1109 404T1097 420T1080 434T1063 438Q1044 438 1026 422T998 391T976 352Q974 348 973 346L823 86Q807 60 799 48T774 16T738 -14T696 -23Q669 -23 646 -11T602
27T571 68T541 117L152 750Q134 779 110 796T65 820T26 832T-3 854T-14 899Q-14 930 9 954T71 994T153 1018T246 1032T329 1038T393 1040Q721 1040 721 918Q721 891 702 864T682 825Q682 793 737 701T827 608Q852 608 887 663T922 743Q922 776 902 801T859 839T815
872T795 918Q795 935 798 947T824 978T887 1009T1010 1030T1206 1040Q1373 1040 1440 1011Q1503 984 1503 932Q1503 900 1487 879T1454 841T1438 805Q1438 769 1484 687T1561 604Q1600 604 1650 693T1700 805Q1700 828 1671 864T1642 936Q1642 1040 1892 1040T2142
938Q2142 906 2129 890T2092 865T2042 847T1983 809T1925 733L1663 219Q1592 86 1545 34Q1493 -23 1448 -23Q1422 -23 1392 -2T1331 60T1284 126T1243 190Q1237 199 1235 203Z" />
<glyph unicode="x" glyph-name="x" d="M987 473L1126 272Q1158 230 1193 205T1248 172T1281 149T1294 104Q1294 86 1292 76T1279 48T1242 21T1172 -1T1055 -17T883 -23Q875 -23 848 -23T804 -24T756 -23T703 -19T654 -10T609 4T573 25T548 54T539 94Q539 119 552
134T581 155T610 174T623 209Q623 241 582 303T512 365Q486 365 438 287T389 176Q389 157 412 130T436 68Q436 -23 217 -23Q191 -23 175 -23T130 -20T81 -11T42 6T11 35T0 78Q0 108 10 121T41 140T84 152T137 182T193 248L358 518Q362 522 372 539T383 563T377
578T362 597T352 608L221 770Q197 800 160 817T95 839T46 863T25 915Q25 1041 452 1040Q461 1040 465 1040Q470 1040 482 1040Q504 1042 535 1041T600 1038T667 1029T728 1012T771 982T788 938Q788 915 768 883T748 838Q748 818 780 774T829 729Q850 729 886 777T922
848Q922 863 901 894T879 944Q879 967 890 984T922 1012T963 1028T1012 1036T1057 1039T1096 1040Q1206 1040 1247 1014T1288 942Q1288 917 1269 898T1223 868T1165 835T1114 786L997 616Q948 555 948 539Q948 533 956 519T975 490T987 473Z" />
<glyph unicode="y" glyph-name="y" horiz-adv-x="1333" d="M1032 506L911 172Q887 106 866 56T814 -53T752 -155T677 -240T587 -308T478 -351T346 -367Q289 -367 234 -352T131 -308T54 -231T25 -121Q25 -43 77 12T207 68Q260 68 294 46T343 -9T368 -73T391 -127T428
-150Q466 -150 487 -120T508 -49Q508 -40 507 -30T503 -8T497 13T489 35T480 56T470 79T461 99T451 119T442 137L156 737Q143 764 116 782T63 808T19 837T0 889Q0 907 5 921T25 955T73 988T155 1014T284 1033T469 1040Q731 1040 731 915Q731 887 708 853T684 795Q684
758 708 704T762 612T809 573Q837 573 862 611T900 693T913 764Q913 795 903 817T881 850T858 879T848 920Q848 958 877 984T954 1021T1039 1036T1114 1040Q1147 1040 1178 1037T1247 1024T1309 992T1333 936Q1333 895 1312 873T1263 842T1199 811T1139 748Q1093
675 1032 506Z" />
<glyph unicode="z" glyph-name="z" horiz-adv-x="1105" d="M989 829L735 379Q734 378 720 350T698 303T690 272Q690 221 764 221Q803 221 832 234T877 266T905 309T928 351T952 384T989 397Q1041 397 1066 358T1092 262Q1092 205 1069 149T1014 54T947 -9T887
-33Q874 -33 861 -28T834 -17T785 -5T700 0H201Q172 0 152 1T101 9T52 33T35 78Q35 94 42 113T58 147T81 182T100 211L348 610Q428 737 428 766Q428 809 338 809Q303 809 277 797T237 765T208 723T182 682T151 650T106 637Q62 637 38 672T14 754Q14 821 46 893T120
1011T195 1057Q210 1057 243 1048T364 1028T602 1018H829Q975 1027 1004 1012Q1038 992 1038 952Q1038 914 989 829Z" />
<glyph unicode="{" glyph-name="braceleft" horiz-adv-x="1073" d="M698 455V43Q698 -8 716 -31T786 -55Q819 -55 839 -71T865 -102T870 -131Q870 -146 865 -161T840 -192T786 -207H596Q453 -207 379 -138T305 82V551Q305 602 287 625T217 649Q184 649 164 665T138
697T133 729T138 761T163 792T217 807Q268 807 286 831T305 907V1354Q305 1505 379 1573T596 1642H786Q819 1642 839 1627T865 1597T870 1567Q870 1553 865 1538T840 1507T786 1491Q735 1491 717 1468T698 1393V1001Q698 876 659 812T504 731V725Q564 718 603 697T663
638T690 559T698 455Z" />
<glyph unicode="|" glyph-name="bar" horiz-adv-x="1015" d="M389 -512V1536H627V-512H389Z" />
<glyph unicode="}" glyph-name="braceright" horiz-adv-x="1073" d="M375 43V455Q375 580 415 645T569 725V731Q509 739 470 760T411 818T383 897T375 1001V1393Q375 1444 357 1467T287 1491Q254 1491 234 1506T208 1537T203 1567Q203 1582 208 1597T233 1627T287
1642H477Q620 1642 694 1574T768 1354V907Q768 855 786 831T856 807Q889 807 909 792T935 761T940 729T935 697T910 665T856 649Q805 649 787 626T768 551V82Q768 -69 694 -138T477 -207H287Q254 -207 234 -192T208 -162T203 -131Q203 -117 208 -102T233 -71T287
-55Q338 -55 356 -32T375 43Z" />
<glyph unicode="~" glyph-name="asciitilde" horiz-adv-x="1290" d="M961 715Q1002 715 1030 711T1086 693T1127 652T1141 582Q1141 484 1072 411T909 338Q854 338 782 359T652 406T539 453T457 475Q440 475 436 468T432 440Q432 388 403 363T330 338Q297 338
274 340T225 351T185 373T160 411T150 471Q150 569 218 642T381 715Q451 715 547 681T723 612T834 578Q846 578 851 582T857 592T858 612Q858 665 887 690T961 715Z" />
</font>
</defs>
</svg>
