<?xml version="1.0" standalone="no"?> <!DOCTYPE svg PUBLIC "-//W3C//DTD SVG 1.0//EN" "http://www.w3.org/TR/2001/REC-SVG-20010904/DTD/svg10.dtd" > <svg xmlns="http://www.w3.org/2000/svg" width="100%" height="100%">
<defs >
<font id="georgiabolditalic" horiz-adv-x="1073" ><font-face
    font-family="Georgia"
    units-per-em="2048"
    panose-1="2 4 8 2 5 4 5 9 2 3"
    ascent="1878"
    descent="-449"
    alphabetic="0" />
<missing-glyph horiz-adv-x="2048" d="M256 0V1536H1792V0H256ZM384 128H1664V1408H384V128Z" />
<glyph unicode=" " glyph-name="space" horiz-adv-x="520" />
<glyph unicode="!" glyph-name="exclam" horiz-adv-x="771" d="M697 1106Q654 1015 578 845T420 462H343Q355 717 355 874T354 1101Q354 1160 356 1194T366 1264Q387 1355 455 1401T601 1447Q669 1447 713 1406T758 1304Q758 1272 745 1226T697 1106ZM509 156Q509
80 452 26T317 -29Q239 -29 182 25T124 156Q124 232 181 287T317 343Q394 343 451 288T509 156Z" />
<glyph unicode="&quot;" glyph-name="quotedbl" horiz-adv-x="1044" d="M588 1219Q548 1142 496 1043T392 823H325Q325 1008 320 1122T315 1314Q315 1403 370 1466T514 1529Q580 1529 618 1494T657 1407Q657 1377 640 1333T588 1219ZM1061 1219Q1021 1142 969
1043T865 823H798Q798 1008 793 1122T788 1314Q788 1403 843 1466T987 1529Q1053 1529 1091 1494T1130 1407Q1130 1377 1114 1333T1061 1219Z" />
<glyph unicode="#" glyph-name="numbersign" horiz-adv-x="1440" d="M1335 748H1066L966 491H1239V331H904L774 0H625L755 331H525L395 0H246L376 331H169V491H438L539 748H265V908H601L735 1249H884L750 908H980L1114 1249H1263L1129 908H1335V748ZM920 750H687L586
489H818L920 750Z" />
<glyph unicode="$" glyph-name="dollar" horiz-adv-x="1312" d="M677 816L767 1223Q622 1211 547 1150T472 999Q472 921 523 875T677 816ZM936 312Q936 399 877 449T709 511L611 65Q770 80 853 144T936 312ZM512 65L612 521Q429 544 322 629T215 851Q215 927 246
999T351 1141Q418 1205 530 1251T785 1306L834 1524H933L884 1306Q1077 1297 1179 1225T1282 1030Q1282 961 1241 914T1128 866Q1052 866 1009 909T966 1020Q966 1069 982 1114T1007 1187Q980 1201 946 1210T866 1223L774 806Q976 775 1084 688T1192 458Q1192 347
1142 261T1011 118Q926 57 818 24T593 -18L531 -299H432L494 -18Q290 -13 170 78T50 294Q50 366 91 414T210 462Q289 462 334 418T380 303Q380 253 364 204T336 125Q385 94 428 80T512 65Z" />
<glyph unicode="%" glyph-name="percent" horiz-adv-x="1801" d="M985 1145Q985 965 851 839T527 712Q378 712 283 799T188 1027Q188 1209 323 1334T646 1460Q796 1460 890 1373T985 1145ZM730 1219Q730 1301 708 1345T633 1389Q549 1389 496 1262T443 947Q443
869 466 826T542 783Q623 783 676 907T730 1219ZM1692 398Q1692 218 1558 92T1234 -35Q1085 -35 990 52T895 280Q895 462 1030 587T1353 713Q1503 713 1597 626T1692 398ZM1437 472Q1437 554 1415 598T1340 642Q1256 642 1203 515T1150 200Q1150 122 1173 79T1249
36Q1330 36 1383 160T1437 472ZM1745 1428L292 0H137L1587 1428H1745Z" />
<glyph unicode="&amp;" glyph-name="ampersand" horiz-adv-x="1637" d="M1528 0H942Q921 32 898 66T848 148Q709 41 607 3T386 -35Q218 -35 116 49T14 272Q14 360 45 432T137 567Q194 626 284 676T479 768Q429 854 406 920T383 1047Q383 1224 522 1340T859 1457Q1001
1457 1088 1396T1176 1226Q1176 1110 1091 1014T826 826Q899 695 955 607T1068 428Q1157 523 1216 621T1276 754Q1276 779 1234 796T1119 828L1135 899H1694L1678 828Q1582 819 1538 804T1445 749Q1418 727 1381 681T1309 591Q1275 548 1218 478T1111 359Q1183
248 1225 200T1301 131Q1339 108 1410 94T1545 75L1528 0ZM1015 1218Q1015 1284 979 1322T881 1361Q808 1361 752 1310T696 1171Q696 1114 719 1052T792 893Q902 957 958 1045T1015 1218ZM809 213Q742 322 653 467T512 703Q429 637 389 555T349 386Q349 278 416
210T595 141Q657 141 701 155T809 213Z" />
<glyph unicode="&apos;" glyph-name="quotesingle" horiz-adv-x="551" d="M578 1219Q538 1142 486 1043T382 823H315Q315 1008 310 1122T305 1314Q305 1403 360 1466T504 1529Q570 1529 608 1494T647 1407Q647 1377 631 1333T578 1219Z" />
<glyph unicode="(" glyph-name="parenleft" horiz-adv-x="915" d="M667 -328Q556 -313 452 -266T267 -135Q187 -52 140 67T92 346Q92 596 177 813T416 1190Q555 1337 731 1424T1067 1532L1047 1442Q921 1420 802 1310T593 1024Q509 857 462 650T415 235Q415 38
481 -87T687 -240L667 -328Z" />
<glyph unicode=")" glyph-name="parenright" horiz-adv-x="915" d="M275 1532Q386 1517 490 1470T675 1339Q755 1256 802 1137T850 858Q850 608 765 391T526 14Q386 -132 210 -219T-125 -328L-105 -238Q21 -216 140 -106T349 180Q433 346 480 553T527 969Q527
1166 461 1291T255 1444L275 1532Z" />
<glyph unicode="*" glyph-name="asterisk" horiz-adv-x="987" d="M1037 1083Q1037 1038 1012 1018T947 997Q922 997 844 1019T677 1052Q735 976 805 909T875 795Q875 762 846 738T785 713Q763 713 744 725T711 761Q698 783 678 861T624 1021Q591 943 570 860T537
761Q521 736 505 725T463 713Q430 713 402 736T373 795Q373 842 443 909T571 1052Q487 1042 406 1020T301 997Q262 997 237 1017T211 1083Q211 1124 236 1146T301 1169Q332 1169 400 1149T571 1116Q505 1200 439 1263T373 1373Q373 1406 402 1430T463 1455Q486
1455 504 1443T537 1408Q550 1386 570 1307T624 1147Q657 1229 678 1308T711 1408Q723 1429 742 1442T785 1455Q818 1455 846 1432T875 1373Q875 1327 813 1266T678 1116Q778 1129 849 1149T947 1169Q986 1169 1011 1147T1037 1083Z" />
<glyph unicode="+" glyph-name="plus" horiz-adv-x="1440" d="M1275 493H802V20H637V493H164V656H637V1129H802V656H1275V493Z" />
<glyph unicode="," glyph-name="comma" horiz-adv-x="672" d="M511 132Q511 -23 384 -167T75 -389L43 -318Q104 -288 147 -263T237 -192Q277 -154 307 -108T354 0H295Q202 0 158 37T114 139Q114 217 176 278T321 340Q419 340 465 282T511 132Z" />
<glyph unicode="-" glyph-name="hyphen" horiz-adv-x="776" d="M671 435H65L115 654H721L671 435Z" />
<glyph unicode="." glyph-name="period" horiz-adv-x="672" d="M504 166Q504 87 446 29T307 -29Q226 -29 168 28T109 166Q109 246 167 304T307 363Q387 363 445 304T504 166Z" />
<glyph unicode="/" glyph-name="slash" horiz-adv-x="966" d="M1068 1523L34 -424H-149L883 1523H1068Z" />
<glyph unicode="0" glyph-name="zero" horiz-adv-x="1436" d="M1256 973Q1318 913 1349 835T1380 666Q1380 516 1319 385T1155 163Q1049 69 914 18T620 -34Q491 -34 393 1T231 96Q167 155 134 234T101 406Q101 545 152 668T304 892Q401 989 544 1049T861 1109Q996
1109 1094 1072T1256 973ZM916 286Q966 393 992 518T1019 779Q1019 836 1010 878T978 954Q957 987 924 1006T844 1026Q764 1026 693 967T561 777Q512 672 487 547T462 300Q462 237 471 197T502 121Q522 88 556 68T638 48Q722 48 794 113T916 286Z" />
<glyph unicode="1" glyph-name="one" horiz-adv-x="1003" d="M822 0H-3L13 72Q44 74 111 82T204 98Q233 107 257 132T291 198L440 840H187L208 931H236Q324 931 396 950T521 996Q575 1023 615 1054T674 1107H850Q829 1032 808 953T770 799L637 227Q634 215 632
199T629 173Q629 149 639 133T669 106Q691 94 749 84T838 72L822 0Z" />
<glyph unicode="2" glyph-name="two" horiz-adv-x="1283" d="M347 1014Q412 1057 510 1083T725 1109Q954 1109 1088 1031T1223 797Q1223 701 1181 635T1050 522Q973 481 858 449T590 384Q504 366 428 341T287 286L283 270H1130L1068 0H-16L29 200Q65 228 110 257T202
313Q267 351 334 382T453 437Q582 494 651 532T763 613Q812 663 829 716T847 829Q847 921 798 968T666 1015Q608 1015 572 1004T505 981Q519 942 534 896T549 798Q549 727 500 681T372 634Q297 634 253 683T208 802Q208 857 243 913T347 1014Z" />
<glyph unicode="3" glyph-name="three" horiz-adv-x="1279" d="M768 1109Q910 1109 999 1080T1139 1007Q1189 964 1208 912T1228 814Q1228 763 1205 704T1130 593Q1079 541 996 497T790 429L786 413Q851 411 912 394T1019 346Q1068 313 1099 259T1130 128Q1130
18 1073 -75T915 -233Q809 -302 689 -335T412 -369Q209 -369 85 -283T-40 -70Q-40 1 5 50T127 99Q206 99 254 54T303 -62Q303 -113 287 -163T258 -244Q281 -257 313 -267T389 -277Q456 -277 520 -249T634 -168Q688 -109 718 -33T748 166Q748 244 707 296T548 348H421L449
465H539Q684 465 771 564T858 840Q858 920 816 967T683 1015Q639 1015 590 1002T509 972Q520 938 535 888T550 794Q550 723 503 679T377 634Q302 634 258 683T213 802Q213 918 373 1013T768 1109Z" />
<glyph unicode="4" glyph-name="four" horiz-adv-x="1330" d="M1197 10H975L887 -369H558L646 10H-22L22 204L940 1103H1227L1022 217H1244L1197 10ZM693 217L843 860L187 217H693Z" />
<glyph unicode="5" glyph-name="five" horiz-adv-x="1227" d="M431 -369Q233 -369 98 -282T-38 -75Q-38 -4 7 45T129 94Q208 94 256 50T305 -66Q305 -116 288 -172T260 -259Q277 -264 317 -270T396 -277Q447 -277 507 -245T616 -151Q669 -85 701 -3T733 200Q733
313 676 379T515 446Q464 446 425 433T348 399Q310 377 283 356T226 304L152 331L408 1077H1253L1190 802H426L317 465Q410 520 487 543T655 567Q736 567 811 551T956 488Q1024 443 1065 373T1106 204Q1106 -37 908 -203T431 -369Z" />
<glyph unicode="6" glyph-name="six" horiz-adv-x="1327" d="M595 -35Q371 -35 238 92T104 429Q104 830 404 1116T1196 1458L1201 1359L1092 1341Q966 1308 873 1249T714 1119Q650 1049 607 963T529 782Q596 838 689 876T911 914Q1061 914 1162 814T1264 554Q1264
315 1071 140T595 -35ZM892 550Q892 655 844 716T722 777Q663 777 611 755T499 665Q492 634 474 546T456 328Q456 196 499 122T615 48Q727 48 809 194T892 550Z" />
<glyph unicode="7" glyph-name="seven" horiz-adv-x="1160" d="M1259 948L237 -369H67L1014 808H560Q479 808 426 807T330 787Q298 773 264 724T193 584H120L234 1077H1289L1259 948Z" />
<glyph unicode="8" glyph-name="eight" horiz-adv-x="1385" d="M1363 1156Q1363 1024 1265 932T993 790Q1149 730 1223 644T1298 452Q1298 245 1101 104T596 -37Q364 -37 226 54T88 295Q88 439 189 540T497 689Q375 748 322 835T268 1017Q268 1111 317 1192T456
1335Q539 1392 659 1426T904 1460Q1114 1460 1238 1374T1363 1156ZM1032 1174Q1032 1262 990 1319T868 1376Q764 1376 691 1298T617 1111Q617 1058 641 1020T706 952Q740 927 806 892T927 826Q970 893 1001 990T1032 1174ZM945 338Q945 396 915 436T834 510Q780
545 706 580T562 653Q514 605 469 505T424 292Q424 179 483 114T642 48Q778 48 861 133T945 338Z" />
<glyph unicode="9" glyph-name="nine" horiz-adv-x="1327" d="M1274 641Q1274 240 977 -35T179 -375L173 -276L283 -258Q411 -224 504 -168T664 -40Q729 31 776 118T853 292Q755 218 665 189T469 160Q318 160 216 266T114 534Q114 769 307 939T781 1109Q1006 1109
1140 981T1274 641ZM923 746Q923 877 880 951T768 1025Q655 1025 571 883T487 533Q487 425 532 360T652 295Q709 295 768 319T880 406Q887 438 905 522T923 746Z" />
<glyph unicode=":" glyph-name="colon" horiz-adv-x="752" d="M674 799Q674 720 616 662T477 604Q396 604 338 661T279 799Q279 879 337 937T477 996Q557 996 615 937T674 799ZM534 166Q534 87 476 29T337 -29Q256 -29 198 28T139 166Q139 246 197 304T337 363Q417
363 475 304T534 166Z" />
<glyph unicode=";" glyph-name="semicolon" horiz-adv-x="752" d="M541 132Q541 -23 414 -167T105 -389L73 -318Q134 -288 177 -263T267 -192Q307 -154 337 -108T384 0H325Q232 0 188 37T144 139Q144 217 206 278T351 340Q449 340 495 282T541 132ZM674 799Q674
720 616 662T477 604Q396 604 338 661T279 799Q279 879 337 937T477 996Q557 996 615 937T674 799Z" />
<glyph unicode="&lt;" glyph-name="less" horiz-adv-x="1440" d="M1231 6L231 506V645L1231 1145V957L445 575L1231 194V6Z" />
<glyph unicode="=" glyph-name="equal" horiz-adv-x="1440" d="M1277 700H207V863H1277V700ZM1277 286H207V449H1277V286Z" />
<glyph unicode="&gt;" glyph-name="greater" horiz-adv-x="1440" d="M1253 506L253 6V194L1039 575L253 957V1145L1253 645V506Z" />
<glyph unicode="?" glyph-name="question" horiz-adv-x="1123" d="M597 156Q597 80 540 26T405 -29Q327 -29 270 25T212 156Q212 232 269 287T405 343Q482 343 539 288T597 156ZM720 1452Q905 1452 1028 1355T1152 1094Q1152 870 980 729T524 568L495 432H409L486
821Q661 834 768 919T875 1164Q875 1261 824 1314T680 1367Q642 1367 607 1356T538 1324Q548 1292 558 1248T569 1166Q569 1095 523 1054T397 1012Q325 1012 281 1055T237 1164Q237 1284 378 1368T720 1452Z" />
<glyph unicode="@" glyph-name="at" horiz-adv-x="1980" d="M1678 1173Q1764 1081 1807 963T1850 717Q1850 465 1708 290T1353 115Q1243 115 1172 152T1081 248H1076Q1053 223 1028 198T973 155Q941 137 913 129T838 120Q715 120 647 197T578 402Q578 498 618
599T729 785Q796 866 892 918T1092 971Q1161 971 1196 947T1249 872H1251L1283 959H1540L1339 404Q1332 384 1325 348T1318 293Q1318 252 1336 229T1393 205Q1550 205 1645 349T1740 728Q1740 845 1701 944T1585 1117Q1508 1191 1392 1233T1127 1276Q984 1276 851
1223T608 1065Q501 963 436 817T370 490Q370 313 422 179T565 -46Q657 -137 781 -183T1055 -229Q1226 -229 1358 -185T1594 -59L1633 -121Q1519 -212 1377 -267T1048 -323Q891 -323 733 -272T452 -123Q329 -24 254 127T178 477Q178 652 246 813T439 1101Q562 1225
742 1301T1136 1377Q1324 1377 1457 1322T1678 1173ZM1209 760Q1208 815 1182 850T1103 885Q1053 885 1007 840T923 722Q886 650 865 558T844 376Q844 308 863 272T926 236Q964 236 994 255T1056 319L1209 760Z" />
<glyph unicode="A" glyph-name="A" horiz-adv-x="1553" d="M892 571L805 1088L481 571H892ZM732 0L749 73Q852 81 909 98T967 137Q967 155 965 168T960 198L910 477H421Q397 440 361 380T299 276Q261 208 255 183T248 151Q248 121 295 102T439 73L422 0H-174L-157
73Q-128 75 -84 83T-10 107Q32 129 69 164T138 249Q341 561 511 825T905 1439H1103Q1180 991 1230 698T1319 208Q1324 178 1338 154T1385 107Q1409 91 1443 83T1508 73L1491 0H732Z" />
<glyph unicode="B" glyph-name="B" horiz-adv-x="1555" d="M1131 1142Q1131 1241 1069 1287T904 1333Q884 1333 857 1332T815 1329L691 795H758Q930 795 1030 890T1131 1142ZM1053 469Q1053 584 979 645T760 707Q740 707 711 706T670 703L548 175Q549 138 603
112T723 86Q856 86 954 193T1053 469ZM1026 1419Q1283 1419 1403 1356T1524 1161Q1524 1074 1486 1008T1384 897Q1321 851 1239 820T1068 771L1064 752Q1133 745 1204 723T1327 665Q1382 628 1414 575T1446 446Q1446 227 1263 114T721 0H-55L-38 73Q-13 74 36 80T110
95Q149 108 169 134T198 195L427 1187Q432 1208 434 1222T436 1243Q436 1285 394 1308T255 1346L272 1419H1026Z" />
<glyph unicode="C" glyph-name="C" horiz-adv-x="1465" d="M721 -38Q584 -38 467 2T265 119Q181 195 134 304T87 552Q87 735 154 897T345 1186Q463 1308 633 1382T996 1457Q1112 1457 1231 1429T1409 1364L1484 1419H1571L1460 901H1372Q1352 1128 1252 1246T993
1365Q877 1365 779 1296T605 1084Q543 966 511 811T478 519Q478 319 575 208T835 97Q978 97 1100 177T1335 408L1412 356Q1363 280 1295 207T1140 79Q1049 22 953 -8T721 -38Z" />
<glyph unicode="D" glyph-name="D" horiz-adv-x="1708" d="M1448 1304Q1559 1235 1622 1124T1685 860Q1685 670 1610 509T1398 235Q1262 121 1082 61T685 0H-55L-38 73Q-13 74 36 79T110 93Q149 106 169 133T198 195L427 1187Q432 1208 434 1222T436 1243Q436
1285 394 1308T255 1346L272 1419H999Q1111 1419 1229 1393T1448 1304ZM1152 349Q1223 470 1257 612T1291 910Q1291 1104 1203 1218T938 1333Q903 1333 869 1332T814 1329L569 264Q565 249 562 228T559 197Q559 134 605 110T736 86Q872 86 977 158T1152 349Z" />
<glyph unicode="E" glyph-name="E" horiz-adv-x="1477" d="M1520 1419L1437 1057H1361Q1347 1152 1294 1231T1181 1324Q1153 1331 1100 1332T1012 1334H816L688 779H824Q899 779 941 795T1021 842Q1049 865 1086 924T1140 1026H1216L1079 434H1003V471Q1003 516
994 563T971 630Q945 668 902 680T804 693H668L577 298Q570 268 564 233T558 183Q558 119 600 103T755 86Q899 86 965 98T1064 137Q1124 187 1208 290T1322 442H1395L1266 0H-55L-38 73Q-13 74 36 79T110 93Q149 106 169 133T198 195L427 1187Q432 1208 434 1222T436
1243Q436 1285 394 1308T255 1346L272 1419H1520Z" />
<glyph unicode="F" glyph-name="F" horiz-adv-x="1375" d="M1548 1419L1460 1040H1383Q1372 1134 1319 1225T1206 1324Q1176 1328 1128 1331T1037 1334H816L685 769H826Q881 769 929 783T1023 834Q1054 859 1091 917T1143 1018H1219L1081 421H1006V452Q1006 504
996 551T973 616Q949 651 910 667T807 683H666L560 226Q556 209 554 194T551 171Q551 126 588 105T729 73L712 0H-55L-38 73Q-13 74 36 80T110 95Q149 108 169 134T198 195L427 1187Q432 1208 434 1222T436 1243Q436 1285 394 1308T255 1346L272 1419H1548Z" />
<glyph unicode="G" glyph-name="G" horiz-adv-x="1653" d="M725 -39Q589 -39 473 -1T271 113Q184 188 136 296T87 539Q87 739 157 906T354 1198Q478 1320 650 1388T1023 1457Q1144 1457 1263 1428T1443 1364L1517 1419H1604L1494 901H1406Q1384 1132 1283 1248T1020
1365Q892 1365 792 1289T623 1092Q555 974 518 811T480 488Q480 290 557 174T786 57Q868 57 928 84T1034 150L1097 421Q1101 439 1103 454T1106 479Q1106 521 1054 544T906 582L923 655H1691L1674 582Q1643 580 1602 572T1536 557Q1494 544 1475 517T1448 456L1408
283Q1398 239 1392 204T1378 127Q1263 61 1074 11T725 -39Z" />
<glyph unicode="H" glyph-name="H" horiz-adv-x="1870" d="M1994 1419L1977 1346Q1946 1344 1899 1336T1828 1321Q1787 1308 1768 1281T1740 1219L1511 226Q1507 209 1505 194T1502 171Q1502 126 1540 105T1684 73L1667 0H900L917 73Q943 75 991 79T1060 91Q1099
105 1120 131T1149 193L1262 690H666L560 226Q556 209 554 194T551 171Q551 126 588 105T729 73L712 0H-55L-38 73Q-13 74 36 79T110 93Q149 106 169 133T198 195L427 1187Q432 1208 434 1222T436 1243Q436 1285 394 1308T255 1346L272 1419H1039L1022 1346Q991
1344 947 1336T877 1321Q835 1308 816 1280T789 1219L690 788H1286L1378 1187Q1383 1208 1385 1222T1387 1243Q1387 1285 1346 1307T1210 1346L1227 1419H1994Z" />
<glyph unicode="I" glyph-name="I" horiz-adv-x="923" d="M-61 0L-44 73Q-15 74 35 79T112 94Q151 107 171 133T200 195L429 1187Q434 1208 436 1222T438 1243Q438 1285 392 1308T249 1346L266 1419H1053L1036 1346Q1004 1344 954 1337T879 1321Q838 1308 819
1281T791 1219L562 226Q558 209 556 194T553 171Q553 121 599 102T743 73L726 0H-61Z" />
<glyph unicode="J" glyph-name="J" horiz-adv-x="1219" d="M947 432Q920 317 860 229T720 82Q642 25 550 -6T364 -38Q176 -38 65 51T-47 294Q-47 389 8 451T155 514Q244 514 293 464T342 337Q342 297 323 259T256 176L194 118V105Q203 81 233 69T294 56Q398 56
471 143T584 403L765 1187Q770 1208 772 1222T774 1243Q774 1285 731 1308T591 1346L608 1419H1374L1357 1346Q1326 1344 1284 1336T1216 1321Q1174 1308 1156 1283T1128 1219L947 432Z" />
<glyph unicode="K" glyph-name="K" horiz-adv-x="1673" d="M560 226Q556 209 554 194T551 171Q551 126 588 105T729 73L712 0H-55L-38 73Q-13 74 36 79T110 93Q149 106 169 133T198 195L427 1187Q432 1208 434 1222T436 1243Q436 1285 394 1308T255 1346L272 1419H1039L1022
1346Q991 1344 947 1336T877 1321Q835 1308 816 1280T789 1219L678 736H720Q829 818 952 916T1157 1088Q1250 1173 1300 1227T1351 1309Q1351 1324 1319 1332T1213 1346L1230 1419H1847L1830 1346Q1718 1334 1633 1299T1461 1200Q1322 1095 1223 1010T1013 834Q1090
705 1179 561T1377 241Q1408 189 1441 155T1523 97Q1545 86 1576 80T1629 73L1612 0H1080Q997 190 914 331T720 655H659L560 226Z" />
<glyph unicode="L" glyph-name="L" horiz-adv-x="1404" d="M1385 455L1252 0H-55L-38 73Q-13 74 36 80T110 95Q150 108 170 134T198 195L427 1187Q432 1208 434 1222T436 1243Q436 1285 394 1308T255 1346L272 1419H1052L1035 1346Q1003 1344 953 1337T877 1321Q835
1308 816 1280T789 1219L572 276Q565 247 561 220T557 177Q557 119 599 103T773 86Q853 86 932 98T1050 142Q1112 192 1188 285T1312 455H1385Z" />
<glyph unicode="M" glyph-name="M" horiz-adv-x="2116" d="M2246 1419L2229 1346Q2198 1344 2152 1336T2082 1321Q2041 1308 2022 1280T1994 1219L1771 226Q1768 211 1765 196T1762 171Q1762 126 1799 105T1944 73L1927 0H1160L1177 73Q1217 78 1259 84T1323 98Q1364
113 1386 138T1417 205L1657 1270H1647L876 23H750Q748 62 736 148T714 311L578 1286H568L368 417Q356 367 349 320T342 235Q342 195 350 173T374 135Q395 114 452 96T538 73L521 0H-89L-72 73Q-46 76 13 86T114 123Q159 151 188 215T247 407L409 1108Q417 1144
419 1163T422 1200Q422 1231 414 1254T388 1294Q357 1324 315 1333T233 1346L250 1419H899L1035 482L1500 1243Q1531 1295 1556 1350T1585 1419H2246Z" />
<glyph unicode="N" glyph-name="N" horiz-adv-x="1699" d="M1883 1419L1866 1346Q1838 1343 1785 1336T1680 1296Q1637 1269 1607 1203T1546 1010L1311 -8H1143L530 1129L368 419Q355 363 348 314T341 236Q341 195 349 173T372 135Q395 112 452 95T538 73L521
0H-89L-72 73Q-45 77 13 87T114 123Q158 151 188 214T247 408L401 1076Q406 1099 409 1119T413 1157Q413 1187 406 1214T380 1265Q352 1299 311 1317T215 1346L233 1419H757L1293 419L1426 1000Q1440 1064 1446 1104T1453 1180Q1453 1219 1445 1243T1420 1284Q1398
1306 1343 1323T1257 1346L1274 1419H1883Z" />
<glyph unicode="O" glyph-name="O" horiz-adv-x="1679" d="M1661 875Q1661 695 1594 528T1404 236Q1279 109 1110 35T727 -39Q447 -39 267 122T87 545Q87 735 160 902T362 1195Q488 1318 657 1388T1015 1458Q1297 1458 1479 1300T1661 875ZM1138 351Q1206 489
1239 651T1272 972Q1272 1155 1202 1260T993 1365Q871 1365 775 1283T612 1070Q546 939 511 774T476 446Q476 269 546 162T756 54Q877 54 975 138T1138 351Z" />
<glyph unicode="P" glyph-name="P" horiz-adv-x="1446" d="M1532 1121Q1532 998 1476 901T1313 737Q1208 673 1079 642T793 611H649L560 226Q556 209 554 194T551 171Q551 126 588 105T733 73L716 0H-55L-38 73Q-13 74 36 80T110 95Q149 108 169 134T198 195L427
1187Q432 1208 434 1222T436 1243Q436 1285 394 1308T255 1346L272 1419H1041Q1289 1419 1410 1346T1532 1121ZM1136 1029T1136 1118Q1136 1226 1078 1279T889 1333H816L670 700H735Q843 700 920 732T1046 823Q1092 879 1114 954Z" />
<glyph unicode="Q" glyph-name="Q" horiz-adv-x="1679" d="M1661 875Q1661 728 1616 589T1487 336Q1403 221 1285 135T1018 4V-49Q1018 -157 1070 -221T1209 -285Q1253 -285 1306 -278T1396 -262L1380 -342Q1311 -371 1190 -393T964 -415Q818 -415 732 -333T645
-91V-34Q398 -7 243 144T87 545Q87 735 160 902T362 1195Q488 1318 657 1388T1015 1458Q1297 1458 1479 1300T1661 875ZM1272 972Q1272 1155 1202 1260T993 1365Q871 1365 775 1283T612 1070Q546 939 511 774T476 446Q476 269 546 162T756 54Q877 54 975 138T1138
351Q1206 489 1239 651T1272 972Z" />
<glyph unicode="R" glyph-name="R" horiz-adv-x="1633" d="M1147 1121Q1147 1228 1080 1280T884 1333H816L677 730H774Q937 730 1042 832T1147 1121ZM560 226Q556 209 554 194T551 171Q551 126 588 105T729 73L712 0H-55L-38 73Q-13 74 36 80T110 95Q149 108 169
134T198 195L427 1187Q432 1208 434 1222T436 1243Q436 1285 394 1308T255 1346L272 1419H1054Q1298 1419 1420 1350T1543 1141Q1543 976 1424 865T1088 701Q1129 626 1191 515T1337 258Q1361 215 1399 161T1481 91Q1502 84 1539 79T1592 73L1574 0H1056Q962 215
896 344T729 643H657L560 226Z" />
<glyph unicode="S" glyph-name="S" horiz-adv-x="1337" d="M575 -38Q457 -38 338 -9T128 70L42 0H-43L63 513H149Q161 438 193 358T276 214Q326 149 403 106T579 63Q724 63 811 133T898 319Q898 393 849 449T689 545Q619 570 554 593T429 642Q312 691 253 781T194
974Q194 1068 237 1154T361 1309Q440 1376 556 1416T812 1457Q928 1457 1042 1424T1210 1359L1285 1419H1372L1268 935H1182Q1169 1020 1145 1095T1077 1230Q1035 1288 973 1322T822 1357Q700 1357 619 1289T537 1118Q537 1046 586 992T741 898Q803 875 871 851T1001
800Q1117 752 1184 670T1251 474Q1251 367 1202 273T1065 111Q972 39 848 1T575 -38Z" />
<glyph unicode="T" glyph-name="T" horiz-adv-x="1401" d="M1591 1419L1497 1013H1420Q1416 1047 1405 1098T1373 1199Q1352 1251 1328 1285T1269 1325Q1239 1329 1193 1332T1112 1335H1062L807 232Q803 215 801 200T798 177Q798 153 807 135T843 105Q867 95 913
86T989 73L972 0H181L198 73Q226 75 280 81T357 95Q397 111 417 138T445 202L707 1335H668Q630 1335 592 1333T504 1325Q468 1320 424 1282T337 1199Q287 1143 255 1098T199 1013H122L216 1419H1591Z" />
<glyph unicode="U" glyph-name="U" horiz-adv-x="1707" d="M755 -39Q495 -39 357 61T218 345Q218 377 222 409T234 480L398 1189Q403 1210 405 1222T407 1243Q407 1285 367 1308T228 1346L245 1419H1005L988 1346Q955 1344 916 1338T850 1323Q809 1311 790 1284T763
1221L601 522Q591 480 585 431T579 349Q579 220 653 159T869 97Q1041 97 1166 211T1335 515L1447 1001Q1461 1063 1467 1107T1474 1181Q1474 1219 1466 1244T1441 1284Q1416 1307 1359 1324T1275 1346L1292 1419H1907L1890 1346Q1860 1343 1804 1333T1703 1296Q1659
1271 1629 1205T1568 1011L1445 478Q1387 230 1202 96T755 -39Z" />
<glyph unicode="V" glyph-name="V" horiz-adv-x="1561" d="M1787 1346Q1756 1343 1724 1333T1654 1304Q1606 1281 1576 1252T1511 1172Q1459 1096 1383 979T1179 666Q1048 465 944 304T739 -16H538Q460 427 406 727T323 1178Q311 1232 293 1257T239 1306Q211 1324
186 1332T122 1346L139 1419H892L874 1346Q792 1337 752 1328T693 1308Q675 1299 673 1287T671 1266Q671 1244 675 1221T685 1158Q704 1040 742 839T834 324Q966 532 1078 711T1292 1056Q1335 1126 1366 1187T1398 1270Q1398 1300 1347 1320T1198 1346L1216 1419H1805L1787
1346Z" />
<glyph unicode="W" glyph-name="W" horiz-adv-x="2307" d="M2549 1419L2531 1346Q2498 1343 2465 1331T2401 1304Q2353 1280 2326 1251T2270 1172Q2171 1005 1982 678T1582 -16H1374L1246 1032L670 -16H470Q428 359 393 689T339 1176Q332 1229 317 1254T263 1307Q239
1324 211 1332T146 1346L163 1419H905L887 1346Q815 1338 775 1329T715 1309Q697 1299 694 1287T691 1261Q691 1241 693 1215T698 1157Q706 1063 727 860T776 385L1335 1419H1548L1677 353Q1796 568 1898 754T2060 1057Q2097 1128 2124 1189T2152 1268Q2152 1299
2100 1319T1946 1346L1964 1419H2549Z" />
<glyph unicode="X" glyph-name="X" horiz-adv-x="1643" d="M1792 1419L1775 1346Q1735 1345 1705 1337T1653 1320Q1586 1293 1533 1250T1423 1155Q1347 1087 1235 983T1020 785Q1104 600 1155 497T1269 265Q1292 217 1324 171T1410 101Q1435 91 1463 84T1541 73L1524
0H690L707 73Q840 81 879 97T919 143Q919 159 912 184T882 266Q863 312 827 395T744 578Q653 494 568 410T426 269Q353 195 339 169T324 129Q324 109 354 95T473 73L456 0H-119L-102 73Q-59 76 -38 80T19 99Q84 127 136 167T250 264Q349 354 453 450T697 677Q632
820 584 919T470 1154Q444 1207 412 1250T326 1317Q299 1329 274 1335T197 1346L214 1419H1050L1033 1346Q952 1342 886 1328T819 1274Q819 1257 825 1235T851 1165Q871 1115 897 1057T974 883Q1075 979 1148 1050T1266 1171Q1334 1245 1341 1262T1349 1291Q1349
1300 1343 1308T1319 1324Q1301 1331 1273 1336T1198 1346L1215 1419H1792Z" />
<glyph unicode="Y" glyph-name="Y" horiz-adv-x="1499" d="M1770 1419L1753 1346Q1719 1342 1690 1334T1623 1306Q1575 1282 1537 1249T1448 1161Q1325 1027 1267 960T1049 706Q961 604 943 563T902 418L859 232Q855 215 853 200T850 177Q850 153 859 135T895
105Q919 95 965 86T1041 73L1024 0H233L250 73Q278 75 332 81T409 95Q447 110 468 138T497 202L556 457Q562 485 567 506T572 544Q572 565 561 598T532 682Q473 853 442 941T356 1168Q336 1220 310 1255T251 1313Q227 1328 192 1336T125 1346L142 1419H935L918
1346Q815 1343 765 1330T714 1288Q714 1275 722 1237T759 1109Q780 1041 818 933T904 694Q1030 841 1135 964T1280 1137Q1354 1229 1365 1250T1376 1282Q1376 1313 1329 1327T1213 1346L1230 1419H1770Z" />
<glyph unicode="Z" glyph-name="Z" horiz-adv-x="1412" d="M1563 1419L1549 1358L363 87H702Q870 87 934 103T1035 154Q1101 216 1176 307T1308 479H1383L1224 0H-98L-83 61L1103 1332H812Q717 1332 674 1327T589 1304Q543 1288 469 1213T276 986H195L339 1419H1563Z" />
<glyph unicode="[" glyph-name="bracketleft" horiz-adv-x="915" d="M651 -310H-11L411 1519H1073L1051 1424H704L326 -214H673L651 -310Z" />
<glyph unicode="\" glyph-name="backslash" horiz-adv-x="966" d="M778 -424H604L255 1523H431L778 -424Z" />
<glyph unicode="]" glyph-name="bracketright" horiz-adv-x="915" d="M537 -310H-125L-103 -214H244L622 1424H275L297 1519H959L537 -310Z" />
<glyph unicode="^" glyph-name="asciicircum" horiz-adv-x="1440" d="M1272 760H1076L759 1273L442 760H248L690 1456H830L1272 760Z" />
<glyph unicode="_" glyph-name="underscore" horiz-adv-x="1440" d="M1262 -301H-188L-161 -181H1289L1262 -301Z" />
<glyph unicode="`" glyph-name="grave" horiz-adv-x="1024" d="M857 1139L811 1101Q680 1189 584 1245T448 1329Q413 1355 396 1379T379 1439Q379 1475 410 1511T493 1548Q556 1548 593 1524T667 1444Q696 1400 744 1318T857 1139Z" />
<glyph unicode="a" glyph-name="a" horiz-adv-x="1352" d="M760 125H752Q717 95 686 70T606 20Q564 -2 518 -16T415 -31Q241 -31 153 71T65 352Q65 489 114 609T245 820Q328 910 439 962T673 1015Q763 1015 830 994T941 937L1248 1000L1262 984L1115 369Q1107
338 1098 292T1089 221Q1089 164 1115 143T1205 121Q1233 121 1272 132T1328 150L1306 60Q1207 21 1148 1T1010 -20Q907 -20 846 20T760 125ZM879 759Q879 781 873 811T852 862Q834 888 805 901T733 915Q667 915 612 868T513 741Q471 663 447 560T423 348Q423 299
430 257T455 186Q473 155 503 138T580 121Q627 121 670 148T751 216L879 759Z" />
<glyph unicode="b" glyph-name="b" horiz-adv-x="1329" d="M1264 632Q1264 496 1218 374T1086 163Q995 70 870 19T592 -32Q555 -32 483 -24T354 4Q282 29 219 75T107 195L358 1273Q362 1290 364 1305T366 1330Q366 1363 354 1385T318 1420Q295 1432 264 1438T191
1448L209 1522L736 1548L747 1532L596 884H603Q626 903 653 922T725 966Q759 984 814 999T915 1015Q1089 1015 1176 913T1264 632ZM906 636Q906 685 899 726T874 798Q856 829 826 846T749 863Q698 863 652 835T570 768L444 210Q444 186 451 161T478 109Q498 81
522 66T591 51Q659 51 718 101T818 234Q862 322 884 419T906 636Z" />
<glyph unicode="c" glyph-name="c" horiz-adv-x="1097" d="M557 -33Q327 -33 199 82T70 398Q70 519 111 627T237 825Q316 909 440 962T717 1015Q894 1015 987 950T1081 771Q1081 740 1071 702T1041 638Q1016 606 987 589T898 572Q820 572 777 610T733 691Q733
741 754 790T807 893Q798 904 771 920T699 936Q582 936 505 795T428 444Q428 285 486 203T653 121Q763 121 836 163T987 309L1059 248Q977 121 842 44T557 -33Z" />
<glyph unicode="d" glyph-name="d" horiz-adv-x="1357" d="M766 125H758Q723 95 691 70T609 20Q562 -4 518 -17T415 -31Q241 -31 153 71T65 352Q65 489 113 609T243 820Q324 910 435 962T668 1015Q760 1015 822 996T925 944L999 1269Q1002 1283 1004 1299T1007
1326Q1007 1359 990 1382T943 1418Q915 1431 879 1437T800 1448L818 1522L1379 1548L1390 1532L1121 369Q1114 340 1105 293T1095 221Q1095 164 1120 143T1210 121Q1238 121 1277 132T1333 150L1311 60Q1212 21 1153 1T1016 -20Q913 -20 852 20T766 125ZM884 765Q884
790 878 816T852 867Q833 892 805 906T729 921Q665 921 610 874T511 744Q471 668 447 564T423 348Q423 299 430 257T455 186Q473 155 503 138T580 121Q627 121 673 148T757 216L884 765Z" />
<glyph unicode="e" glyph-name="e" horiz-adv-x="1141" d="M546 -33Q426 -33 336 -1T186 90Q128 148 99 225T70 395Q70 513 114 624T245 824Q327 909 453 962T731 1015Q910 1015 1003 958T1097 787Q1097 678 1016 600T796 483Q686 450 609 436T419 410Q421 366
431 311T461 217Q485 172 529 146T641 119Q759 119 841 164T999 309L1072 248Q982 120 842 44T546 -33ZM772 759Q772 844 741 889T655 935Q578 935 510 810T422 492Q481 499 539 510T631 536Q706 569 739 621T772 759Z" />
<glyph unicode="f" glyph-name="f" horiz-adv-x="780" d="M620 868Q570 621 534 440T446 60Q421 -37 364 -130T228 -292Q146 -364 51 -404T-146 -444Q-237 -444 -293 -426T-382 -380Q-413 -352 -424 -318T-435 -251Q-435 -193 -394 -149T-282 -104Q-228 -104 -189
-132T-121 -201Q-93 -240 -72 -288T-38 -363Q4 -317 41 -225T110 22L289 868H95L119 971H311L328 1048Q349 1142 404 1232T539 1394Q615 1464 714 1508T914 1552Q1001 1552 1058 1536T1149 1490Q1179 1463 1189 1430T1200 1363Q1200 1341 1192 1314T1165 1265Q1143
1240 1119 1226T1047 1212Q993 1212 954 1240T888 1308Q859 1349 839 1396T806 1471Q765 1424 732 1334T664 1086L639 971H892L868 868H620Z" />
<glyph unicode="g" glyph-name="g" horiz-adv-x="1330" d="M750 105H742Q717 85 684 62T613 22Q567 0 527 -11T426 -23Q252 -23 159 79T65 359Q65 494 113 612T243 822Q324 911 434 963T668 1015Q758 1015 827 996T946 937L1251 1000L1265 984L1095 171Q1055 -11
984 -129T819 -318Q723 -389 619 -416T399 -444Q276 -444 199 -426T80 -378Q40 -350 26 -316T11 -248Q11 -191 51 -146T164 -100Q218 -100 260 -129T335 -199Q364 -236 389 -284T427 -363Q473 -355 518 -337T606 -269Q646 -221 682 -136T750 105ZM884 760Q884 785
878 811T852 862Q833 887 805 901T729 916Q664 916 609 870T512 745Q471 668 447 566T423 354Q423 306 431 266T461 193Q482 161 515 145T591 129Q640 129 691 159T774 223L884 760Z" />
<glyph unicode="h" glyph-name="h" horiz-adv-x="1383" d="M1354 151L1332 63Q1233 24 1174 4T1037 -17Q918 -17 852 42T785 190Q785 218 787 252T805 345L877 611Q888 654 893 688T899 745Q899 793 876 820T798 847Q764 847 701 821T560 722L395 0H64L358 1273Q362
1290 364 1305T366 1330Q366 1366 354 1387T318 1421Q294 1434 263 1439T191 1448L209 1522L736 1548L747 1532L587 840H594Q687 922 787 968T1002 1015Q1113 1015 1175 954T1238 806Q1238 783 1235 742T1218 653L1142 372Q1132 337 1124 292T1116 224Q1116 166
1141 144T1231 122Q1261 122 1299 132T1354 151Z" />
<glyph unicode="i" glyph-name="i" horiz-adv-x="749" d="M713 143L691 53Q592 14 533 -6T396 -27Q276 -27 210 31T143 180Q143 215 148 251T164 334L246 626Q257 668 264 705T272 774Q272 830 249 852T161 874Q129 874 96 864T38 845L60 935Q141 968 215 991T355
1015Q474 1015 538 958T603 808Q603 789 599 741T582 653L500 362Q490 327 482 282T474 214Q474 156 500 135T590 114Q620 114 658 124T713 143ZM734 1364Q734 1288 677 1235T538 1181Q457 1181 399 1234T341 1364Q341 1440 399 1494T538 1548Q619 1548 676 1494T734
1364Z" />
<glyph unicode="j" glyph-name="j" horiz-adv-x="747" d="M627 808Q627 789 625 756T615 683Q571 453 553 359T482 60Q455 -42 401 -131T267 -292Q184 -366 99 -405T-93 -444Q-183 -444 -238 -426T-325 -380Q-356 -352 -367 -318T-378 -251Q-378 -192 -336 -148T-225
-104Q-171 -104 -132 -132T-64 -201Q-36 -240 -15 -288T19 -363Q52 -305 83 -215T148 22Q189 203 220 359T279 659Q283 682 288 715T294 774Q294 824 269 849T180 874Q147 874 112 864T52 845L74 935Q155 968 233 991T378 1015Q497 1015 562 958T627 808ZM742 1364Q742
1288 685 1235T546 1181Q465 1181 407 1234T349 1364Q349 1440 407 1494T546 1548Q627 1548 684 1494T742 1364Z" />
<glyph unicode="k" glyph-name="k" horiz-adv-x="1313" d="M1297 858Q1297 787 1246 732T1118 677Q1055 677 1001 705T906 765Q886 752 867 740T788 675Q834 559 889 420T972 228Q1005 165 1034 139T1138 113Q1164 113 1203 123T1267 143L1245 53Q1146 11 1072
-8T940 -27Q912 -27 870 -23T796 -5Q757 13 725 45T661 147Q617 246 599 298T547 441L481 379L395 0H64L358 1273Q362 1290 364 1305T366 1330Q366 1366 354 1387T318 1421Q294 1434 263 1439T191 1448L209 1522L736 1548L747 1532L507 492H515Q635 627 704 698T855
849Q953 944 1011 979T1141 1015Q1213 1015 1255 975T1297 858Z" />
<glyph unicode="l" glyph-name="l" horiz-adv-x="726" d="M746 1532L477 362Q470 333 461 285T451 214Q451 156 480 135T576 114Q601 114 644 124T705 143L683 53Q584 14 521 -6T378 -27Q258 -27 189 31T120 180Q120 217 126 257T141 334L357 1273Q361 1290 363
1305T365 1330Q365 1366 353 1387T317 1421Q293 1434 262 1439T190 1448L208 1522L735 1548L746 1532Z" />
<glyph unicode="m" glyph-name="m" horiz-adv-x="2052" d="M2023 153L2001 63Q1902 24 1843 4T1706 -17Q1587 -17 1521 42T1455 190Q1455 214 1457 251T1474 345L1546 611Q1557 654 1562 688T1568 745Q1568 793 1544 820T1466 847Q1428 847 1370 813T1251 722L1086
0H755L895 610Q906 660 911 691T917 745Q917 793 893 820T814 847Q783 847 728 822T590 722L425 0H94L236 615Q242 643 251 689T261 763Q261 820 239 841T152 863Q120 863 87 853T29 834L51 924Q132 957 206 980T346 1004Q468 1004 522 955T598 827H605Q705 919
798 967T1012 1015Q1115 1015 1181 960T1254 824H1261Q1368 916 1460 965T1670 1015Q1781 1015 1844 954T1907 806Q1907 783 1904 742T1887 653L1811 372Q1801 337 1793 292T1785 224Q1785 166 1810 145T1900 124Q1930 124 1968 134T2023 153Z" />
<glyph unicode="n" glyph-name="n" horiz-adv-x="1413" d="M1384 153L1362 63Q1263 24 1204 4T1067 -17Q948 -17 882 42T816 190Q816 214 818 251T835 345L907 611Q918 654 923 688T929 745Q929 793 906 820T828 847Q794 847 731 821T590 722L425 0H94L236 615Q242
643 251 688T261 763Q261 820 238 841T152 863Q120 863 87 853T29 834L51 924Q132 957 206 980T346 1004Q464 1004 522 958T600 827H607Q705 916 809 965T1032 1015Q1143 1015 1205 954T1268 806Q1268 783 1265 742T1248 653L1172 372Q1162 337 1154 292T1146 224Q1146
166 1171 145T1261 124Q1291 124 1329 134T1384 153Z" />
<glyph unicode="o" glyph-name="o" horiz-adv-x="1302" d="M1235 599Q1235 473 1187 358T1051 158Q956 67 829 18T542 -32Q329 -32 198 81T67 391Q67 524 116 638T255 837Q343 920 471 968T748 1017Q974 1017 1104 907T1235 599ZM883 712Q883 829 844 884T729
939Q652 939 588 878T484 697Q449 598 434 483T419 276Q419 155 459 101T575 46Q657 46 717 113T812 278Q847 374 865 490T883 712Z" />
<glyph unicode="p" glyph-name="p" horiz-adv-x="1357" d="M1292 632Q1292 498 1245 377T1115 166Q1030 74 924 24T690 -26Q594 -26 536 -8T434 45L373 -221Q370 -233 367 -249T364 -273Q364 -296 374 -315T404 -343Q426 -353 475 -362T556 -374L540 -444H-182L-166
-374Q-140 -372 -101 -367T-42 -355Q-8 -344 10 -321T36 -257L234 615Q240 644 249 689T259 763Q259 816 237 839T150 863Q120 863 85 853T27 834L49 924Q130 957 204 980T344 1004Q399 1004 441 994T515 960Q542 941 559 914T589 859H597Q689 939 776 977T943
1015Q1117 1015 1204 913T1292 632ZM847 238Q890 325 912 421T934 636Q934 685 927 726T902 798Q884 829 854 846T777 863Q724 863 673 830T598 768L474 219Q474 150 514 105T629 59Q691 59 748 107T847 238Z" />
<glyph unicode="q" glyph-name="q" horiz-adv-x="1331" d="M732 98H724Q705 84 669 59T600 17Q561 -3 515 -17T415 -31Q241 -31 153 71T65 352Q65 489 113 609T243 820Q324 910 435 962T668 1015Q763 1015 828 997T945 937L1251 1000L1265 984L988 -221Q985 -234
982 -250T979 -273Q979 -296 989 -315T1019 -343Q1041 -353 1087 -362T1166 -374L1150 -444H428L444 -374Q469 -372 511 -367T572 -355Q607 -343 625 -320T651 -257L732 98ZM883 760Q883 785 877 811T851 862Q832 887 804 901T728 916Q662 916 607 869T510 742Q469
663 446 558T423 348Q423 299 430 257T455 186Q473 155 503 138T580 121Q630 121 679 152T758 216L883 760Z" />
<glyph unicode="r" glyph-name="r" horiz-adv-x="1093" d="M1106 807Q1106 762 1093 720T1054 648Q1025 614 993 598T903 581Q828 581 785 618T742 701Q742 744 754 775T794 869Q727 841 679 801T587 708L429 0H98L236 615Q242 643 251 688T261 763Q261 821 239
842T152 863Q120 863 87 853T29 834L51 924Q132 957 206 980T346 1004Q464 1004 522 958T600 827H607Q706 932 775 973T923 1015Q1008 1015 1057 962T1106 807Z" />
<glyph unicode="s" glyph-name="s" horiz-adv-x="1059" d="M435 -33Q309 -33 227 -13T96 40Q47 72 29 108T11 177Q11 235 54 278T170 322Q230 322 270 291T338 213Q363 170 380 118T404 41Q517 41 575 89T633 222Q633 259 616 284T569 328Q540 346 495 363T406
395Q285 436 215 508T144 689Q144 753 173 809T266 914Q328 960 423 987T645 1015Q721 1015 786 1006T907 973Q960 949 989 911T1019 817Q1019 762 978 723T869 683Q811 683 773 713T710 784Q686 826 672 870T649 945Q579 941 522 895T464 779Q464 737 477 713T514
673Q540 655 579 640T678 604Q814 556 883 489T952 312Q952 240 919 174T823 64Q754 16 664 -8T435 -33Z" />
<glyph unicode="t" glyph-name="t" horiz-adv-x="854" d="M408 -26Q288 -26 216 32T144 181Q144 218 149 251T165 336L289 868H106L130 971H317L389 1274H713L643 971H914L890 868H620L498 336Q491 308 485 268T478 216Q478 159 509 137T606 115Q637 115 691 127T768
147L746 57Q658 18 570 -4T408 -26Z" />
<glyph unicode="u" glyph-name="u" horiz-adv-x="1403" d="M803 159H796Q691 63 596 17T376 -29Q265 -29 205 32T144 180Q144 211 147 243T166 333L241 614Q248 642 257 690T267 762Q267 817 245 839T157 862Q125 862 92 852T34 833L56 923Q137 956 211 979T351
1003Q470 1003 534 944T599 796Q599 778 595 730T579 641L506 375Q496 340 490 300T484 241Q484 194 506 167T582 139Q621 139 685 171T813 264L978 986L1297 1000L1309 986L1167 371Q1160 342 1151 294T1141 223Q1141 165 1166 144T1256 123Q1286 123 1324 133T1379
152L1357 62Q1258 23 1199 3T1062 -18Q952 -18 886 31T803 159Z" />
<glyph unicode="v" glyph-name="v" horiz-adv-x="1254" d="M1209 766Q1209 625 1162 480T1028 223Q926 92 802 30T544 -32Q366 -32 261 51T156 289Q156 337 172 392T212 521Q232 584 249 645T267 762Q267 816 243 839T157 862Q125 862 92 852T34 833L56 923Q137
956 211 979T351 1003Q470 1003 534 944T599 796Q599 731 582 658T545 527Q528 475 510 408T491 300Q491 215 532 164T664 113Q800 113 900 214T1000 488Q1000 505 998 525T990 570Q979 593 947 619T893 667Q864 696 842 735T820 838Q820 891 840 924T890 978Q914
995 947 1005T1010 1015Q1103 1015 1156 949T1209 766Z" />
<glyph unicode="w" glyph-name="w" horiz-adv-x="1912" d="M1867 766Q1867 620 1819 477T1685 223Q1596 109 1473 39T1192 -32Q1046 -32 956 25T832 189Q725 72 622 22T396 -29Q280 -29 213 43T146 224Q146 264 154 299T173 377L241 614Q248 642 257 690T267 762Q267
815 245 838T157 862Q125 862 92 852T34 833L56 923Q137 956 211 979T351 1003Q470 1003 534 944T599 793Q599 760 589 699T567 599L509 405Q499 374 492 328T484 261Q484 204 515 172T589 139Q602 139 627 142T679 159Q707 172 747 200T826 272Q826 290 830 324T844
407L976 986L1295 1000L1307 986L1175 413Q1172 401 1167 363T1161 283Q1161 197 1202 156T1325 115Q1461 115 1559 216T1658 488Q1658 505 1656 525T1648 570Q1637 593 1607 617T1551 666Q1522 695 1500 736T1478 838Q1478 888 1497 922T1548 978Q1571 995 1606
1005T1668 1015Q1764 1015 1815 947T1867 766Z" />
<glyph unicode="x" glyph-name="x" horiz-adv-x="1195" d="M1218 866Q1218 779 1163 728T1027 676Q979 676 933 688T852 712Q836 701 805 664T735 574Q771 421 793 357T835 226Q852 173 885 143T989 113Q1015 113 1054 123T1118 143L1096 53Q997 11 923 -8T791
-27Q749 -27 708 -19T633 10Q596 32 571 65T527 157Q515 194 505 241T485 324Q456 281 443 260T405 201Q326 80 268 29T129 -23Q68 -23 25 18T-18 125Q-18 214 37 265T173 317Q221 317 265 306T348 280Q363 292 394 327T463 414Q430 548 409 616T366 751Q348 805
314 834T212 864Q182 864 145 854T83 834L105 924Q195 964 275 984T410 1004Q459 1004 494 997T568 967Q604 945 630 912T674 820Q686 780 696 737T713 663Q734 695 756 729T795 789Q872 910 933 962T1071 1015Q1134 1015 1176 974T1218 866Z" />
<glyph unicode="y" glyph-name="y" horiz-adv-x="1371" d="M803 160H796Q683 57 588 17T378 -23Q267 -23 206 39T144 188Q144 219 147 251T166 341L241 614Q248 642 257 690T267 762Q267 819 245 840T157 862Q125 862 92 852T34 833L56 923Q137 956 211 979T351
1003Q470 1003 534 944T599 796Q599 778 595 730T579 641L506 381Q496 346 490 306T484 248Q484 198 508 172T586 146Q630 146 697 179T822 269L974 986L1291 1000L1305 984L1130 171Q1090 -11 1018 -129T851 -318Q760 -385 654 -414T439 -444Q320 -444 242 -427T119
-378Q79 -350 65 -316T50 -248Q50 -190 91 -145T203 -100Q257 -100 299 -129T374 -199Q405 -238 429 -285T467 -363Q485 -360 511 -351T556 -329Q582 -312 602 -295T648 -243Q698 -176 737 -77T803 160Z" />
<glyph unicode="z" glyph-name="z" horiz-adv-x="1059" d="M1084 986L1069 914L361 84Q397 83 433 83T518 82Q554 82 590 83T687 89Q726 93 755 117T802 174Q816 199 851 257T908 363H978L907 0H-27L-9 83L688 902H570Q483 902 446 899T359 878Q325 865 280 804T203
668H132L194 986H1084Z" />
<glyph unicode="{" glyph-name="braceleft" horiz-adv-x="1024" d="M777 -333Q667 -333 562 -323T392 -285Q323 -255 285 -200T247 -51Q247 -28 250 -5T257 47Q265 96 285 171T314 301Q318 326 320 343T322 378Q322 454 273 490T72 537L106 687Q174 692 242 703T354
737Q402 762 435 805T481 923Q491 982 496 1037T511 1157Q531 1279 586 1353T727 1470Q813 1512 928 1524T1170 1537L1155 1454Q1099 1450 1059 1444T973 1412Q930 1388 903 1346T859 1221L825 1031Q805 924 759 855T648 742Q584 700 509 677T358 640L340 564Q487
533 553 463T619 281Q619 258 617 229T608 173L568 -17Q565 -31 564 -47T563 -77Q563 -134 583 -166T636 -217Q668 -234 712 -241T792 -250L777 -333Z" />
<glyph unicode="|" glyph-name="bar" horiz-adv-x="794" d="M505 -424H334V1523H505V-424Z" />
<glyph unicode="}" glyph-name="braceright" horiz-adv-x="1024" d="M976 666L942 516Q857 510 804 502T694 466Q644 441 613 397T567 280Q556 221 552 166T537 46Q518 -73 464 -149T322 -267Q234 -308 126 -321T-122 -334L-107 -251Q-59 -248 -11 -240T76 -209Q115
-186 145 -141T189 -18L223 172Q242 280 288 348T400 461Q460 502 539 525T690 563L708 639Q647 652 597 673T509 727Q470 762 450 809T429 922Q429 952 432 978T440 1030L480 1220Q483 1235 484 1250T485 1280Q485 1336 465 1369T412 1420Q382 1436 339 1443T256
1453L271 1536Q394 1536 490 1527T656 1488Q725 1458 763 1403T801 1254Q801 1235 799 1208T791 1156Q781 1100 764 1036T734 902Q730 879 728 860T726 825Q726 737 788 705T976 666Z" />
<glyph unicode="~" glyph-name="asciitilde" horiz-adv-x="1440" d="M1317 735Q1297 680 1264 622T1189 519Q1138 463 1079 430T952 396Q876 396 814 422T693 483Q647 510 587 540T480 571Q414 571 365 524T271 372L167 414Q182 458 214 517T295 630Q340 681 401
717T532 753Q614 753 677 725T793 665Q846 633 897 606T1004 578Q1074 578 1123 630T1213 777L1317 735Z" />
</font>
</defs>
</svg>
